<?xml version="1.0" encoding="utf-8" standalone="no"?>
<!DOCTYPE svg PUBLIC "-//W3C//DTD SVG 1.1//EN"
  "http://www.w3.org/Graphics/SVG/1.1/DTD/svg11.dtd">
<!-- Created with matplotlib (https://matplotlib.org/) -->
<svg height="337.59625pt" version="1.1" viewBox="0 0 453.295625 337.59625" width="453.295625pt" xmlns="http://www.w3.org/2000/svg" xmlns:xlink="http://www.w3.org/1999/xlink">
 <defs>
  <style type="text/css">
*{stroke-linecap:butt;stroke-linejoin:round;}
  </style>
 </defs>
 <g id="figure_1">
  <g id="patch_1">
   <path d="M 0 337.59625 
L 453.295625 337.59625 
L 453.295625 0 
L 0 0 
z
" style="fill:#ffffff;"/>
  </g>
  <g id="axes_1">
   <g id="patch_2">
    <path d="M 46.965625 300.04 
L 446.095625 300.04 
L 446.095625 7.2 
L 46.965625 7.2 
z
" style="fill:#ffffff;"/>
   </g>
   <g id="matplotlib.axis_1">
    <g id="xtick_1">
     <g id="line2d_1">
      <defs>
       <path d="M 0 0 
L 0 3.5 
" id="m41d293385f" style="stroke:#000000;stroke-width:0.8;"/>
      </defs>
      <g>
       <use style="stroke:#000000;stroke-width:0.8;" x="65.107898" xlink:href="#m41d293385f" y="300.04"/>
      </g>
     </g>
     <g id="text_1">
      <!-- 0 -->
      <defs>
       <path d="M 31.78125 66.40625 
Q 24.171875 66.40625 20.328125 58.90625 
Q 16.5 51.421875 16.5 36.375 
Q 16.5 21.390625 20.328125 13.890625 
Q 24.171875 6.390625 31.78125 6.390625 
Q 39.453125 6.390625 43.28125 13.890625 
Q 47.125 21.390625 47.125 36.375 
Q 47.125 51.421875 43.28125 58.90625 
Q 39.453125 66.40625 31.78125 66.40625 
z
M 31.78125 74.21875 
Q 44.046875 74.21875 50.515625 64.515625 
Q 56.984375 54.828125 56.984375 36.375 
Q 56.984375 17.96875 50.515625 8.265625 
Q 44.046875 -1.421875 31.78125 -1.421875 
Q 19.53125 -1.421875 13.0625 8.265625 
Q 6.59375 17.96875 6.59375 36.375 
Q 6.59375 54.828125 13.0625 64.515625 
Q 19.53125 74.21875 31.78125 74.21875 
z
" id="DejaVuSans-48"/>
      </defs>
      <g transform="translate(61.926648 314.638437)scale(0.1 -0.1)">
       <use xlink:href="#DejaVuSans-48"/>
      </g>
     </g>
    </g>
    <g id="xtick_2">
     <g id="line2d_2">
      <g>
       <use style="stroke:#000000;stroke-width:0.8;" x="120.084482" xlink:href="#m41d293385f" y="300.04"/>
      </g>
     </g>
     <g id="text_2">
      <!-- 10 -->
      <defs>
       <path d="M 12.40625 8.296875 
L 28.515625 8.296875 
L 28.515625 63.921875 
L 10.984375 60.40625 
L 10.984375 69.390625 
L 28.421875 72.90625 
L 38.28125 72.90625 
L 38.28125 8.296875 
L 54.390625 8.296875 
L 54.390625 0 
L 12.40625 0 
z
" id="DejaVuSans-49"/>
      </defs>
      <g transform="translate(113.721982 314.638437)scale(0.1 -0.1)">
       <use xlink:href="#DejaVuSans-49"/>
       <use x="63.623047" xlink:href="#DejaVuSans-48"/>
      </g>
     </g>
    </g>
    <g id="xtick_3">
     <g id="line2d_3">
      <g>
       <use style="stroke:#000000;stroke-width:0.8;" x="175.061066" xlink:href="#m41d293385f" y="300.04"/>
      </g>
     </g>
     <g id="text_3">
      <!-- 20 -->
      <defs>
       <path d="M 19.1875 8.296875 
L 53.609375 8.296875 
L 53.609375 0 
L 7.328125 0 
L 7.328125 8.296875 
Q 12.9375 14.109375 22.625 23.890625 
Q 32.328125 33.6875 34.8125 36.53125 
Q 39.546875 41.84375 41.421875 45.53125 
Q 43.3125 49.21875 43.3125 52.78125 
Q 43.3125 58.59375 39.234375 62.25 
Q 35.15625 65.921875 28.609375 65.921875 
Q 23.96875 65.921875 18.8125 64.3125 
Q 13.671875 62.703125 7.8125 59.421875 
L 7.8125 69.390625 
Q 13.765625 71.78125 18.9375 73 
Q 24.125 74.21875 28.421875 74.21875 
Q 39.75 74.21875 46.484375 68.546875 
Q 53.21875 62.890625 53.21875 53.421875 
Q 53.21875 48.921875 51.53125 44.890625 
Q 49.859375 40.875 45.40625 35.40625 
Q 44.1875 33.984375 37.640625 27.21875 
Q 31.109375 20.453125 19.1875 8.296875 
z
" id="DejaVuSans-50"/>
      </defs>
      <g transform="translate(168.698566 314.638437)scale(0.1 -0.1)">
       <use xlink:href="#DejaVuSans-50"/>
       <use x="63.623047" xlink:href="#DejaVuSans-48"/>
      </g>
     </g>
    </g>
    <g id="xtick_4">
     <g id="line2d_4">
      <g>
       <use style="stroke:#000000;stroke-width:0.8;" x="230.03765" xlink:href="#m41d293385f" y="300.04"/>
      </g>
     </g>
     <g id="text_4">
      <!-- 30 -->
      <defs>
       <path d="M 40.578125 39.3125 
Q 47.65625 37.796875 51.625 33 
Q 55.609375 28.21875 55.609375 21.1875 
Q 55.609375 10.40625 48.1875 4.484375 
Q 40.765625 -1.421875 27.09375 -1.421875 
Q 22.515625 -1.421875 17.65625 -0.515625 
Q 12.796875 0.390625 7.625 2.203125 
L 7.625 11.71875 
Q 11.71875 9.328125 16.59375 8.109375 
Q 21.484375 6.890625 26.8125 6.890625 
Q 36.078125 6.890625 40.9375 10.546875 
Q 45.796875 14.203125 45.796875 21.1875 
Q 45.796875 27.640625 41.28125 31.265625 
Q 36.765625 34.90625 28.71875 34.90625 
L 20.21875 34.90625 
L 20.21875 43.015625 
L 29.109375 43.015625 
Q 36.375 43.015625 40.234375 45.921875 
Q 44.09375 48.828125 44.09375 54.296875 
Q 44.09375 59.90625 40.109375 62.90625 
Q 36.140625 65.921875 28.71875 65.921875 
Q 24.65625 65.921875 20.015625 65.03125 
Q 15.375 64.15625 9.8125 62.3125 
L 9.8125 71.09375 
Q 15.4375 72.65625 20.34375 73.4375 
Q 25.25 74.21875 29.59375 74.21875 
Q 40.828125 74.21875 47.359375 69.109375 
Q 53.90625 64.015625 53.90625 55.328125 
Q 53.90625 49.265625 50.4375 45.09375 
Q 46.96875 40.921875 40.578125 39.3125 
z
" id="DejaVuSans-51"/>
      </defs>
      <g transform="translate(223.67515 314.638437)scale(0.1 -0.1)">
       <use xlink:href="#DejaVuSans-51"/>
       <use x="63.623047" xlink:href="#DejaVuSans-48"/>
      </g>
     </g>
    </g>
    <g id="xtick_5">
     <g id="line2d_5">
      <g>
       <use style="stroke:#000000;stroke-width:0.8;" x="285.014234" xlink:href="#m41d293385f" y="300.04"/>
      </g>
     </g>
     <g id="text_5">
      <!-- 40 -->
      <defs>
       <path d="M 37.796875 64.3125 
L 12.890625 25.390625 
L 37.796875 25.390625 
z
M 35.203125 72.90625 
L 47.609375 72.90625 
L 47.609375 25.390625 
L 58.015625 25.390625 
L 58.015625 17.1875 
L 47.609375 17.1875 
L 47.609375 0 
L 37.796875 0 
L 37.796875 17.1875 
L 4.890625 17.1875 
L 4.890625 26.703125 
z
" id="DejaVuSans-52"/>
      </defs>
      <g transform="translate(278.651734 314.638437)scale(0.1 -0.1)">
       <use xlink:href="#DejaVuSans-52"/>
       <use x="63.623047" xlink:href="#DejaVuSans-48"/>
      </g>
     </g>
    </g>
    <g id="xtick_6">
     <g id="line2d_6">
      <g>
       <use style="stroke:#000000;stroke-width:0.8;" x="339.990818" xlink:href="#m41d293385f" y="300.04"/>
      </g>
     </g>
     <g id="text_6">
      <!-- 50 -->
      <defs>
       <path d="M 10.796875 72.90625 
L 49.515625 72.90625 
L 49.515625 64.59375 
L 19.828125 64.59375 
L 19.828125 46.734375 
Q 21.96875 47.46875 24.109375 47.828125 
Q 26.265625 48.1875 28.421875 48.1875 
Q 40.625 48.1875 47.75 41.5 
Q 54.890625 34.8125 54.890625 23.390625 
Q 54.890625 11.625 47.5625 5.09375 
Q 40.234375 -1.421875 26.90625 -1.421875 
Q 22.3125 -1.421875 17.546875 -0.640625 
Q 12.796875 0.140625 7.71875 1.703125 
L 7.71875 11.625 
Q 12.109375 9.234375 16.796875 8.0625 
Q 21.484375 6.890625 26.703125 6.890625 
Q 35.15625 6.890625 40.078125 11.328125 
Q 45.015625 15.765625 45.015625 23.390625 
Q 45.015625 31 40.078125 35.4375 
Q 35.15625 39.890625 26.703125 39.890625 
Q 22.75 39.890625 18.8125 39.015625 
Q 14.890625 38.140625 10.796875 36.28125 
z
" id="DejaVuSans-53"/>
      </defs>
      <g transform="translate(333.628318 314.638437)scale(0.1 -0.1)">
       <use xlink:href="#DejaVuSans-53"/>
       <use x="63.623047" xlink:href="#DejaVuSans-48"/>
      </g>
     </g>
    </g>
    <g id="xtick_7">
     <g id="line2d_7">
      <g>
       <use style="stroke:#000000;stroke-width:0.8;" x="394.967402" xlink:href="#m41d293385f" y="300.04"/>
      </g>
     </g>
     <g id="text_7">
      <!-- 60 -->
      <defs>
       <path d="M 33.015625 40.375 
Q 26.375 40.375 22.484375 35.828125 
Q 18.609375 31.296875 18.609375 23.390625 
Q 18.609375 15.53125 22.484375 10.953125 
Q 26.375 6.390625 33.015625 6.390625 
Q 39.65625 6.390625 43.53125 10.953125 
Q 47.40625 15.53125 47.40625 23.390625 
Q 47.40625 31.296875 43.53125 35.828125 
Q 39.65625 40.375 33.015625 40.375 
z
M 52.59375 71.296875 
L 52.59375 62.3125 
Q 48.875 64.0625 45.09375 64.984375 
Q 41.3125 65.921875 37.59375 65.921875 
Q 27.828125 65.921875 22.671875 59.328125 
Q 17.53125 52.734375 16.796875 39.40625 
Q 19.671875 43.65625 24.015625 45.921875 
Q 28.375 48.1875 33.59375 48.1875 
Q 44.578125 48.1875 50.953125 41.515625 
Q 57.328125 34.859375 57.328125 23.390625 
Q 57.328125 12.15625 50.6875 5.359375 
Q 44.046875 -1.421875 33.015625 -1.421875 
Q 20.359375 -1.421875 13.671875 8.265625 
Q 6.984375 17.96875 6.984375 36.375 
Q 6.984375 53.65625 15.1875 63.9375 
Q 23.390625 74.21875 37.203125 74.21875 
Q 40.921875 74.21875 44.703125 73.484375 
Q 48.484375 72.75 52.59375 71.296875 
z
" id="DejaVuSans-54"/>
      </defs>
      <g transform="translate(388.604902 314.638437)scale(0.1 -0.1)">
       <use xlink:href="#DejaVuSans-54"/>
       <use x="63.623047" xlink:href="#DejaVuSans-48"/>
      </g>
     </g>
    </g>
    <g id="text_8">
     <!-- Total Power iterations -->
     <defs>
      <path d="M -0.296875 72.90625 
L 61.375 72.90625 
L 61.375 64.59375 
L 35.5 64.59375 
L 35.5 0 
L 25.59375 0 
L 25.59375 64.59375 
L -0.296875 64.59375 
z
" id="DejaVuSans-84"/>
      <path d="M 30.609375 48.390625 
Q 23.390625 48.390625 19.1875 42.75 
Q 14.984375 37.109375 14.984375 27.296875 
Q 14.984375 17.484375 19.15625 11.84375 
Q 23.34375 6.203125 30.609375 6.203125 
Q 37.796875 6.203125 41.984375 11.859375 
Q 46.1875 17.53125 46.1875 27.296875 
Q 46.1875 37.015625 41.984375 42.703125 
Q 37.796875 48.390625 30.609375 48.390625 
z
M 30.609375 56 
Q 42.328125 56 49.015625 48.375 
Q 55.71875 40.765625 55.71875 27.296875 
Q 55.71875 13.875 49.015625 6.21875 
Q 42.328125 -1.421875 30.609375 -1.421875 
Q 18.84375 -1.421875 12.171875 6.21875 
Q 5.515625 13.875 5.515625 27.296875 
Q 5.515625 40.765625 12.171875 48.375 
Q 18.84375 56 30.609375 56 
z
" id="DejaVuSans-111"/>
      <path d="M 18.3125 70.21875 
L 18.3125 54.6875 
L 36.8125 54.6875 
L 36.8125 47.703125 
L 18.3125 47.703125 
L 18.3125 18.015625 
Q 18.3125 11.328125 20.140625 9.421875 
Q 21.96875 7.515625 27.59375 7.515625 
L 36.8125 7.515625 
L 36.8125 0 
L 27.59375 0 
Q 17.1875 0 13.234375 3.875 
Q 9.28125 7.765625 9.28125 18.015625 
L 9.28125 47.703125 
L 2.6875 47.703125 
L 2.6875 54.6875 
L 9.28125 54.6875 
L 9.28125 70.21875 
z
" id="DejaVuSans-116"/>
      <path d="M 34.28125 27.484375 
Q 23.390625 27.484375 19.1875 25 
Q 14.984375 22.515625 14.984375 16.5 
Q 14.984375 11.71875 18.140625 8.90625 
Q 21.296875 6.109375 26.703125 6.109375 
Q 34.1875 6.109375 38.703125 11.40625 
Q 43.21875 16.703125 43.21875 25.484375 
L 43.21875 27.484375 
z
M 52.203125 31.203125 
L 52.203125 0 
L 43.21875 0 
L 43.21875 8.296875 
Q 40.140625 3.328125 35.546875 0.953125 
Q 30.953125 -1.421875 24.3125 -1.421875 
Q 15.921875 -1.421875 10.953125 3.296875 
Q 6 8.015625 6 15.921875 
Q 6 25.140625 12.171875 29.828125 
Q 18.359375 34.515625 30.609375 34.515625 
L 43.21875 34.515625 
L 43.21875 35.40625 
Q 43.21875 41.609375 39.140625 45 
Q 35.0625 48.390625 27.6875 48.390625 
Q 23 48.390625 18.546875 47.265625 
Q 14.109375 46.140625 10.015625 43.890625 
L 10.015625 52.203125 
Q 14.9375 54.109375 19.578125 55.046875 
Q 24.21875 56 28.609375 56 
Q 40.484375 56 46.34375 49.84375 
Q 52.203125 43.703125 52.203125 31.203125 
z
" id="DejaVuSans-97"/>
      <path d="M 9.421875 75.984375 
L 18.40625 75.984375 
L 18.40625 0 
L 9.421875 0 
z
" id="DejaVuSans-108"/>
      <path id="DejaVuSans-32"/>
      <path d="M 19.671875 64.796875 
L 19.671875 37.40625 
L 32.078125 37.40625 
Q 38.96875 37.40625 42.71875 40.96875 
Q 46.484375 44.53125 46.484375 51.125 
Q 46.484375 57.671875 42.71875 61.234375 
Q 38.96875 64.796875 32.078125 64.796875 
z
M 9.8125 72.90625 
L 32.078125 72.90625 
Q 44.34375 72.90625 50.609375 67.359375 
Q 56.890625 61.8125 56.890625 51.125 
Q 56.890625 40.328125 50.609375 34.8125 
Q 44.34375 29.296875 32.078125 29.296875 
L 19.671875 29.296875 
L 19.671875 0 
L 9.8125 0 
z
" id="DejaVuSans-80"/>
      <path d="M 4.203125 54.6875 
L 13.1875 54.6875 
L 24.421875 12.015625 
L 35.59375 54.6875 
L 46.1875 54.6875 
L 57.421875 12.015625 
L 68.609375 54.6875 
L 77.59375 54.6875 
L 63.28125 0 
L 52.6875 0 
L 40.921875 44.828125 
L 29.109375 0 
L 18.5 0 
z
" id="DejaVuSans-119"/>
      <path d="M 56.203125 29.59375 
L 56.203125 25.203125 
L 14.890625 25.203125 
Q 15.484375 15.921875 20.484375 11.0625 
Q 25.484375 6.203125 34.421875 6.203125 
Q 39.59375 6.203125 44.453125 7.46875 
Q 49.3125 8.734375 54.109375 11.28125 
L 54.109375 2.78125 
Q 49.265625 0.734375 44.1875 -0.34375 
Q 39.109375 -1.421875 33.890625 -1.421875 
Q 20.796875 -1.421875 13.15625 6.1875 
Q 5.515625 13.8125 5.515625 26.8125 
Q 5.515625 40.234375 12.765625 48.109375 
Q 20.015625 56 32.328125 56 
Q 43.359375 56 49.78125 48.890625 
Q 56.203125 41.796875 56.203125 29.59375 
z
M 47.21875 32.234375 
Q 47.125 39.59375 43.09375 43.984375 
Q 39.0625 48.390625 32.421875 48.390625 
Q 24.90625 48.390625 20.390625 44.140625 
Q 15.875 39.890625 15.1875 32.171875 
z
" id="DejaVuSans-101"/>
      <path d="M 41.109375 46.296875 
Q 39.59375 47.171875 37.8125 47.578125 
Q 36.03125 48 33.890625 48 
Q 26.265625 48 22.1875 43.046875 
Q 18.109375 38.09375 18.109375 28.8125 
L 18.109375 0 
L 9.078125 0 
L 9.078125 54.6875 
L 18.109375 54.6875 
L 18.109375 46.1875 
Q 20.953125 51.171875 25.484375 53.578125 
Q 30.03125 56 36.53125 56 
Q 37.453125 56 38.578125 55.875 
Q 39.703125 55.765625 41.0625 55.515625 
z
" id="DejaVuSans-114"/>
      <path d="M 9.421875 54.6875 
L 18.40625 54.6875 
L 18.40625 0 
L 9.421875 0 
z
M 9.421875 75.984375 
L 18.40625 75.984375 
L 18.40625 64.59375 
L 9.421875 64.59375 
z
" id="DejaVuSans-105"/>
      <path d="M 54.890625 33.015625 
L 54.890625 0 
L 45.90625 0 
L 45.90625 32.71875 
Q 45.90625 40.484375 42.875 44.328125 
Q 39.84375 48.1875 33.796875 48.1875 
Q 26.515625 48.1875 22.3125 43.546875 
Q 18.109375 38.921875 18.109375 30.90625 
L 18.109375 0 
L 9.078125 0 
L 9.078125 54.6875 
L 18.109375 54.6875 
L 18.109375 46.1875 
Q 21.34375 51.125 25.703125 53.5625 
Q 30.078125 56 35.796875 56 
Q 45.21875 56 50.046875 50.171875 
Q 54.890625 44.34375 54.890625 33.015625 
z
" id="DejaVuSans-110"/>
      <path d="M 44.28125 53.078125 
L 44.28125 44.578125 
Q 40.484375 46.53125 36.375 47.5 
Q 32.28125 48.484375 27.875 48.484375 
Q 21.1875 48.484375 17.84375 46.4375 
Q 14.5 44.390625 14.5 40.28125 
Q 14.5 37.15625 16.890625 35.375 
Q 19.28125 33.59375 26.515625 31.984375 
L 29.59375 31.296875 
Q 39.15625 29.25 43.1875 25.515625 
Q 47.21875 21.78125 47.21875 15.09375 
Q 47.21875 7.46875 41.1875 3.015625 
Q 35.15625 -1.421875 24.609375 -1.421875 
Q 20.21875 -1.421875 15.453125 -0.5625 
Q 10.6875 0.296875 5.421875 2 
L 5.421875 11.28125 
Q 10.40625 8.6875 15.234375 7.390625 
Q 20.0625 6.109375 24.8125 6.109375 
Q 31.15625 6.109375 34.5625 8.28125 
Q 37.984375 10.453125 37.984375 14.40625 
Q 37.984375 18.0625 35.515625 20.015625 
Q 33.0625 21.96875 24.703125 23.78125 
L 21.578125 24.515625 
Q 13.234375 26.265625 9.515625 29.90625 
Q 5.8125 33.546875 5.8125 39.890625 
Q 5.8125 47.609375 11.28125 51.796875 
Q 16.75 56 26.8125 56 
Q 31.78125 56 36.171875 55.265625 
Q 40.578125 54.546875 44.28125 53.078125 
z
" id="DejaVuSans-115"/>
     </defs>
     <g transform="translate(191.818906 328.316562)scale(0.1 -0.1)">
      <use xlink:href="#DejaVuSans-84"/>
      <use x="60.818359" xlink:href="#DejaVuSans-111"/>
      <use x="122" xlink:href="#DejaVuSans-116"/>
      <use x="161.208984" xlink:href="#DejaVuSans-97"/>
      <use x="222.488281" xlink:href="#DejaVuSans-108"/>
      <use x="250.271484" xlink:href="#DejaVuSans-32"/>
      <use x="282.058594" xlink:href="#DejaVuSans-80"/>
      <use x="342.314453" xlink:href="#DejaVuSans-111"/>
      <use x="403.496094" xlink:href="#DejaVuSans-119"/>
      <use x="485.283203" xlink:href="#DejaVuSans-101"/>
      <use x="546.806641" xlink:href="#DejaVuSans-114"/>
      <use x="587.919922" xlink:href="#DejaVuSans-32"/>
      <use x="619.707031" xlink:href="#DejaVuSans-105"/>
      <use x="647.490234" xlink:href="#DejaVuSans-116"/>
      <use x="686.699219" xlink:href="#DejaVuSans-101"/>
      <use x="748.222656" xlink:href="#DejaVuSans-114"/>
      <use x="789.335938" xlink:href="#DejaVuSans-97"/>
      <use x="850.615234" xlink:href="#DejaVuSans-116"/>
      <use x="889.824219" xlink:href="#DejaVuSans-105"/>
      <use x="917.607422" xlink:href="#DejaVuSans-111"/>
      <use x="978.789062" xlink:href="#DejaVuSans-110"/>
      <use x="1042.167969" xlink:href="#DejaVuSans-115"/>
     </g>
    </g>
   </g>
   <g id="matplotlib.axis_2">
    <g id="ytick_1">
     <g id="line2d_8">
      <defs>
       <path d="M 0 0 
L -3.5 0 
" id="me7242ad50f" style="stroke:#000000;stroke-width:0.8;"/>
      </defs>
      <g>
       <use style="stroke:#000000;stroke-width:0.8;" x="46.965625" xlink:href="#me7242ad50f" y="245.772448"/>
      </g>
     </g>
     <g id="text_9">
      <!-- 300 -->
      <g transform="translate(20.878125 249.571666)scale(0.1 -0.1)">
       <use xlink:href="#DejaVuSans-51"/>
       <use x="63.623047" xlink:href="#DejaVuSans-48"/>
       <use x="127.246094" xlink:href="#DejaVuSans-48"/>
      </g>
     </g>
    </g>
    <g id="ytick_2">
     <g id="line2d_9">
      <g>
       <use style="stroke:#000000;stroke-width:0.8;" x="46.965625" xlink:href="#me7242ad50f" y="185.54209"/>
      </g>
     </g>
     <g id="text_10">
      <!-- 350 -->
      <g transform="translate(20.878125 189.341308)scale(0.1 -0.1)">
       <use xlink:href="#DejaVuSans-51"/>
       <use x="63.623047" xlink:href="#DejaVuSans-53"/>
       <use x="127.246094" xlink:href="#DejaVuSans-48"/>
      </g>
     </g>
    </g>
    <g id="ytick_3">
     <g id="line2d_10">
      <g>
       <use style="stroke:#000000;stroke-width:0.8;" x="46.965625" xlink:href="#me7242ad50f" y="125.311732"/>
      </g>
     </g>
     <g id="text_11">
      <!-- 400 -->
      <g transform="translate(20.878125 129.110951)scale(0.1 -0.1)">
       <use xlink:href="#DejaVuSans-52"/>
       <use x="63.623047" xlink:href="#DejaVuSans-48"/>
       <use x="127.246094" xlink:href="#DejaVuSans-48"/>
      </g>
     </g>
    </g>
    <g id="ytick_4">
     <g id="line2d_11">
      <g>
       <use style="stroke:#000000;stroke-width:0.8;" x="46.965625" xlink:href="#me7242ad50f" y="65.081374"/>
      </g>
     </g>
     <g id="text_12">
      <!-- 450 -->
      <g transform="translate(20.878125 68.880593)scale(0.1 -0.1)">
       <use xlink:href="#DejaVuSans-52"/>
       <use x="63.623047" xlink:href="#DejaVuSans-53"/>
       <use x="127.246094" xlink:href="#DejaVuSans-48"/>
      </g>
     </g>
    </g>
    <g id="text_13">
     <!-- InnerIterations -->
     <defs>
      <path d="M 9.8125 72.90625 
L 19.671875 72.90625 
L 19.671875 0 
L 9.8125 0 
z
" id="DejaVuSans-73"/>
     </defs>
     <g transform="translate(14.798437 190.377812)rotate(-90)scale(0.1 -0.1)">
      <use xlink:href="#DejaVuSans-73"/>
      <use x="29.492188" xlink:href="#DejaVuSans-110"/>
      <use x="92.871094" xlink:href="#DejaVuSans-110"/>
      <use x="156.25" xlink:href="#DejaVuSans-101"/>
      <use x="217.773438" xlink:href="#DejaVuSans-114"/>
      <use x="258.886719" xlink:href="#DejaVuSans-73"/>
      <use x="288.378906" xlink:href="#DejaVuSans-116"/>
      <use x="327.587891" xlink:href="#DejaVuSans-101"/>
      <use x="389.111328" xlink:href="#DejaVuSans-114"/>
      <use x="430.224609" xlink:href="#DejaVuSans-97"/>
      <use x="491.503906" xlink:href="#DejaVuSans-116"/>
      <use x="530.712891" xlink:href="#DejaVuSans-105"/>
      <use x="558.496094" xlink:href="#DejaVuSans-111"/>
      <use x="619.677734" xlink:href="#DejaVuSans-110"/>
      <use x="683.056641" xlink:href="#DejaVuSans-115"/>
     </g>
    </g>
   </g>
   <g id="line2d_12">
    <path clip-path="url(#p67c94b8999)" d="M 65.107898 73.513624 
L 70.605556 148.199268 
L 76.103215 154.222304 
L 81.600873 162.654554 
L 87.098531 166.268375 
L 92.59619 171.086804 
L 98.093848 174.700625 
L 103.591507 179.519054 
L 109.089165 187.951304 
L 114.586823 192.769733 
L 120.084482 197.588161 
L 125.58214 201.201983 
L 131.079799 207.225019 
L 136.577457 213.248054 
L 142.075115 219.27109 
L 147.572774 225.294126 
L 153.070432 227.70334 
L 158.568091 234.930983 
L 164.065749 239.749412 
L 169.563407 246.977055 
L 175.061066 253.00009 
L 180.558724 255.409305 
L 186.056383 261.432341 
L 191.554041 266.250769 
L 197.051699 272.273805 
L 202.549358 278.296841 
L 208.047016 283.115269 
L 213.544675 286.729091 
L 219.042333 20.510909 
L 224.539991 122.902517 
L 230.03765 145.790053 
L 235.535308 156.631518 
L 241.032967 162.654554 
L 246.530625 172.291411 
L 252.028283 178.314447 
L 257.525942 185.54209 
L 263.0236 193.97434 
L 268.521259 198.792768 
L 274.018917 208.429626 
L 279.516575 214.452661 
L 285.014234 221.680304 
L 290.511892 227.70334 
L 296.009551 45.807659 
L 301.507209 134.948589 
L 307.004867 157.836125 
L 312.502526 163.859161 
L 318.000184 173.496018 
L 323.497843 180.723661 
L 328.995501 187.951304 
L 334.493159 192.769733 
L 339.990818 202.40659 
L 345.488476 36.170802 
L 350.986135 146.994661 
L 356.483793 167.472982 
" style="fill:none;stroke:#0000ff;stroke-linecap:square;stroke-width:1.5;"/>
    <defs>
     <path d="M -3 3 
L 3 3 
L 3 -3 
L -3 -3 
z
" id="me7dc0d4025" style="stroke:#0000ff;stroke-linejoin:miter;"/>
    </defs>
    <g clip-path="url(#p67c94b8999)">
     <use style="fill-opacity:0;stroke:#0000ff;stroke-linejoin:miter;" x="65.107898" xlink:href="#me7dc0d4025" y="73.513624"/>
     <use style="fill-opacity:0;stroke:#0000ff;stroke-linejoin:miter;" x="70.605556" xlink:href="#me7dc0d4025" y="148.199268"/>
     <use style="fill-opacity:0;stroke:#0000ff;stroke-linejoin:miter;" x="76.103215" xlink:href="#me7dc0d4025" y="154.222304"/>
     <use style="fill-opacity:0;stroke:#0000ff;stroke-linejoin:miter;" x="81.600873" xlink:href="#me7dc0d4025" y="162.654554"/>
     <use style="fill-opacity:0;stroke:#0000ff;stroke-linejoin:miter;" x="87.098531" xlink:href="#me7dc0d4025" y="166.268375"/>
     <use style="fill-opacity:0;stroke:#0000ff;stroke-linejoin:miter;" x="92.59619" xlink:href="#me7dc0d4025" y="171.086804"/>
     <use style="fill-opacity:0;stroke:#0000ff;stroke-linejoin:miter;" x="98.093848" xlink:href="#me7dc0d4025" y="174.700625"/>
     <use style="fill-opacity:0;stroke:#0000ff;stroke-linejoin:miter;" x="103.591507" xlink:href="#me7dc0d4025" y="179.519054"/>
     <use style="fill-opacity:0;stroke:#0000ff;stroke-linejoin:miter;" x="109.089165" xlink:href="#me7dc0d4025" y="187.951304"/>
     <use style="fill-opacity:0;stroke:#0000ff;stroke-linejoin:miter;" x="114.586823" xlink:href="#me7dc0d4025" y="192.769733"/>
     <use style="fill-opacity:0;stroke:#0000ff;stroke-linejoin:miter;" x="120.084482" xlink:href="#me7dc0d4025" y="197.588161"/>
     <use style="fill-opacity:0;stroke:#0000ff;stroke-linejoin:miter;" x="125.58214" xlink:href="#me7dc0d4025" y="201.201983"/>
     <use style="fill-opacity:0;stroke:#0000ff;stroke-linejoin:miter;" x="131.079799" xlink:href="#me7dc0d4025" y="207.225019"/>
     <use style="fill-opacity:0;stroke:#0000ff;stroke-linejoin:miter;" x="136.577457" xlink:href="#me7dc0d4025" y="213.248054"/>
     <use style="fill-opacity:0;stroke:#0000ff;stroke-linejoin:miter;" x="142.075115" xlink:href="#me7dc0d4025" y="219.27109"/>
     <use style="fill-opacity:0;stroke:#0000ff;stroke-linejoin:miter;" x="147.572774" xlink:href="#me7dc0d4025" y="225.294126"/>
     <use style="fill-opacity:0;stroke:#0000ff;stroke-linejoin:miter;" x="153.070432" xlink:href="#me7dc0d4025" y="227.70334"/>
     <use style="fill-opacity:0;stroke:#0000ff;stroke-linejoin:miter;" x="158.568091" xlink:href="#me7dc0d4025" y="234.930983"/>
     <use style="fill-opacity:0;stroke:#0000ff;stroke-linejoin:miter;" x="164.065749" xlink:href="#me7dc0d4025" y="239.749412"/>
     <use style="fill-opacity:0;stroke:#0000ff;stroke-linejoin:miter;" x="169.563407" xlink:href="#me7dc0d4025" y="246.977055"/>
     <use style="fill-opacity:0;stroke:#0000ff;stroke-linejoin:miter;" x="175.061066" xlink:href="#me7dc0d4025" y="253.00009"/>
     <use style="fill-opacity:0;stroke:#0000ff;stroke-linejoin:miter;" x="180.558724" xlink:href="#me7dc0d4025" y="255.409305"/>
     <use style="fill-opacity:0;stroke:#0000ff;stroke-linejoin:miter;" x="186.056383" xlink:href="#me7dc0d4025" y="261.432341"/>
     <use style="fill-opacity:0;stroke:#0000ff;stroke-linejoin:miter;" x="191.554041" xlink:href="#me7dc0d4025" y="266.250769"/>
     <use style="fill-opacity:0;stroke:#0000ff;stroke-linejoin:miter;" x="197.051699" xlink:href="#me7dc0d4025" y="272.273805"/>
     <use style="fill-opacity:0;stroke:#0000ff;stroke-linejoin:miter;" x="202.549358" xlink:href="#me7dc0d4025" y="278.296841"/>
     <use style="fill-opacity:0;stroke:#0000ff;stroke-linejoin:miter;" x="208.047016" xlink:href="#me7dc0d4025" y="283.115269"/>
     <use style="fill-opacity:0;stroke:#0000ff;stroke-linejoin:miter;" x="213.544675" xlink:href="#me7dc0d4025" y="286.729091"/>
     <use style="fill-opacity:0;stroke:#0000ff;stroke-linejoin:miter;" x="219.042333" xlink:href="#me7dc0d4025" y="20.510909"/>
     <use style="fill-opacity:0;stroke:#0000ff;stroke-linejoin:miter;" x="224.539991" xlink:href="#me7dc0d4025" y="122.902517"/>
     <use style="fill-opacity:0;stroke:#0000ff;stroke-linejoin:miter;" x="230.03765" xlink:href="#me7dc0d4025" y="145.790053"/>
     <use style="fill-opacity:0;stroke:#0000ff;stroke-linejoin:miter;" x="235.535308" xlink:href="#me7dc0d4025" y="156.631518"/>
     <use style="fill-opacity:0;stroke:#0000ff;stroke-linejoin:miter;" x="241.032967" xlink:href="#me7dc0d4025" y="162.654554"/>
     <use style="fill-opacity:0;stroke:#0000ff;stroke-linejoin:miter;" x="246.530625" xlink:href="#me7dc0d4025" y="172.291411"/>
     <use style="fill-opacity:0;stroke:#0000ff;stroke-linejoin:miter;" x="252.028283" xlink:href="#me7dc0d4025" y="178.314447"/>
     <use style="fill-opacity:0;stroke:#0000ff;stroke-linejoin:miter;" x="257.525942" xlink:href="#me7dc0d4025" y="185.54209"/>
     <use style="fill-opacity:0;stroke:#0000ff;stroke-linejoin:miter;" x="263.0236" xlink:href="#me7dc0d4025" y="193.97434"/>
     <use style="fill-opacity:0;stroke:#0000ff;stroke-linejoin:miter;" x="268.521259" xlink:href="#me7dc0d4025" y="198.792768"/>
     <use style="fill-opacity:0;stroke:#0000ff;stroke-linejoin:miter;" x="274.018917" xlink:href="#me7dc0d4025" y="208.429626"/>
     <use style="fill-opacity:0;stroke:#0000ff;stroke-linejoin:miter;" x="279.516575" xlink:href="#me7dc0d4025" y="214.452661"/>
     <use style="fill-opacity:0;stroke:#0000ff;stroke-linejoin:miter;" x="285.014234" xlink:href="#me7dc0d4025" y="221.680304"/>
     <use style="fill-opacity:0;stroke:#0000ff;stroke-linejoin:miter;" x="290.511892" xlink:href="#me7dc0d4025" y="227.70334"/>
     <use style="fill-opacity:0;stroke:#0000ff;stroke-linejoin:miter;" x="296.009551" xlink:href="#me7dc0d4025" y="45.807659"/>
     <use style="fill-opacity:0;stroke:#0000ff;stroke-linejoin:miter;" x="301.507209" xlink:href="#me7dc0d4025" y="134.948589"/>
     <use style="fill-opacity:0;stroke:#0000ff;stroke-linejoin:miter;" x="307.004867" xlink:href="#me7dc0d4025" y="157.836125"/>
     <use style="fill-opacity:0;stroke:#0000ff;stroke-linejoin:miter;" x="312.502526" xlink:href="#me7dc0d4025" y="163.859161"/>
     <use style="fill-opacity:0;stroke:#0000ff;stroke-linejoin:miter;" x="318.000184" xlink:href="#me7dc0d4025" y="173.496018"/>
     <use style="fill-opacity:0;stroke:#0000ff;stroke-linejoin:miter;" x="323.497843" xlink:href="#me7dc0d4025" y="180.723661"/>
     <use style="fill-opacity:0;stroke:#0000ff;stroke-linejoin:miter;" x="328.995501" xlink:href="#me7dc0d4025" y="187.951304"/>
     <use style="fill-opacity:0;stroke:#0000ff;stroke-linejoin:miter;" x="334.493159" xlink:href="#me7dc0d4025" y="192.769733"/>
     <use style="fill-opacity:0;stroke:#0000ff;stroke-linejoin:miter;" x="339.990818" xlink:href="#me7dc0d4025" y="202.40659"/>
     <use style="fill-opacity:0;stroke:#0000ff;stroke-linejoin:miter;" x="345.488476" xlink:href="#me7dc0d4025" y="36.170802"/>
     <use style="fill-opacity:0;stroke:#0000ff;stroke-linejoin:miter;" x="350.986135" xlink:href="#me7dc0d4025" y="146.994661"/>
     <use style="fill-opacity:0;stroke:#0000ff;stroke-linejoin:miter;" x="356.483793" xlink:href="#me7dc0d4025" y="167.472982"/>
    </g>
   </g>
   <g id="line2d_13">
    <path clip-path="url(#p67c94b8999)" d="M 65.107898 73.513624 
L 70.605556 148.199268 
L 76.103215 154.222304 
L 81.600873 162.654554 
L 87.098531 166.268375 
L 92.59619 171.086804 
L 98.093848 174.700625 
L 103.591507 179.519054 
L 109.089165 187.951304 
L 114.586823 192.769733 
L 120.084482 197.588161 
L 125.58214 201.201983 
L 131.079799 207.225019 
L 136.577457 213.248054 
L 142.075115 219.27109 
L 147.572774 225.294126 
L 153.070432 227.70334 
L 158.568091 234.930983 
L 164.065749 239.749412 
L 169.563407 246.977055 
L 175.061066 253.00009 
L 180.558724 255.409305 
L 186.056383 261.432341 
L 191.554041 266.250769 
L 197.051699 272.273805 
L 202.549358 278.296841 
L 208.047016 283.115269 
L 213.544675 286.729091 
L 219.042333 20.510909 
L 224.539991 122.902517 
L 230.03765 145.790053 
L 235.535308 156.631518 
L 241.032967 162.654554 
L 246.530625 172.291411 
L 252.028283 178.314447 
L 257.525942 185.54209 
L 263.0236 193.97434 
L 268.521259 198.792768 
L 274.018917 208.429626 
L 279.516575 214.452661 
L 285.014234 221.680304 
L 290.511892 227.70334 
L 296.009551 45.807659 
L 301.507209 127.720946 
L 307.004867 151.813089 
L 312.502526 149.403875 
L 318.000184 162.654554 
L 323.497843 168.677589 
L 328.995501 177.10984 
L 334.493159 191.565125 
L 339.990818 202.40659 
L 345.488476 213.248054 
L 350.986135 44.603052 
L 356.483793 128.925553 
L 361.981451 146.994661 
L 367.47911 166.268375 
L 372.976768 163.859161 
L 378.474427 173.496018 
L 383.972085 191.565125 
L 389.469743 184.337483 
L 394.967402 193.97434 
L 400.46506 210.83884 
L 405.962719 213.248054 
L 411.460377 218.066483 
L 416.958035 227.70334 
L 422.455694 232.521769 
L 427.953352 254.204698 
" style="fill:none;stroke:#ff0000;stroke-dasharray:5.55,2.4;stroke-dashoffset:0;stroke-width:1.5;"/>
    <defs>
     <path d="M -3 3 
L 3 -3 
M -3 -3 
L 3 3 
" id="m269d57d297" style="stroke:#ff0000;"/>
    </defs>
    <g clip-path="url(#p67c94b8999)">
     <use style="fill:#ff0000;stroke:#ff0000;" x="65.107898" xlink:href="#m269d57d297" y="73.513624"/>
     <use style="fill:#ff0000;stroke:#ff0000;" x="70.605556" xlink:href="#m269d57d297" y="148.199268"/>
     <use style="fill:#ff0000;stroke:#ff0000;" x="76.103215" xlink:href="#m269d57d297" y="154.222304"/>
     <use style="fill:#ff0000;stroke:#ff0000;" x="81.600873" xlink:href="#m269d57d297" y="162.654554"/>
     <use style="fill:#ff0000;stroke:#ff0000;" x="87.098531" xlink:href="#m269d57d297" y="166.268375"/>
     <use style="fill:#ff0000;stroke:#ff0000;" x="92.59619" xlink:href="#m269d57d297" y="171.086804"/>
     <use style="fill:#ff0000;stroke:#ff0000;" x="98.093848" xlink:href="#m269d57d297" y="174.700625"/>
     <use style="fill:#ff0000;stroke:#ff0000;" x="103.591507" xlink:href="#m269d57d297" y="179.519054"/>
     <use style="fill:#ff0000;stroke:#ff0000;" x="109.089165" xlink:href="#m269d57d297" y="187.951304"/>
     <use style="fill:#ff0000;stroke:#ff0000;" x="114.586823" xlink:href="#m269d57d297" y="192.769733"/>
     <use style="fill:#ff0000;stroke:#ff0000;" x="120.084482" xlink:href="#m269d57d297" y="197.588161"/>
     <use style="fill:#ff0000;stroke:#ff0000;" x="125.58214" xlink:href="#m269d57d297" y="201.201983"/>
     <use style="fill:#ff0000;stroke:#ff0000;" x="131.079799" xlink:href="#m269d57d297" y="207.225019"/>
     <use style="fill:#ff0000;stroke:#ff0000;" x="136.577457" xlink:href="#m269d57d297" y="213.248054"/>
     <use style="fill:#ff0000;stroke:#ff0000;" x="142.075115" xlink:href="#m269d57d297" y="219.27109"/>
     <use style="fill:#ff0000;stroke:#ff0000;" x="147.572774" xlink:href="#m269d57d297" y="225.294126"/>
     <use style="fill:#ff0000;stroke:#ff0000;" x="153.070432" xlink:href="#m269d57d297" y="227.70334"/>
     <use style="fill:#ff0000;stroke:#ff0000;" x="158.568091" xlink:href="#m269d57d297" y="234.930983"/>
     <use style="fill:#ff0000;stroke:#ff0000;" x="164.065749" xlink:href="#m269d57d297" y="239.749412"/>
     <use style="fill:#ff0000;stroke:#ff0000;" x="169.563407" xlink:href="#m269d57d297" y="246.977055"/>
     <use style="fill:#ff0000;stroke:#ff0000;" x="175.061066" xlink:href="#m269d57d297" y="253.00009"/>
     <use style="fill:#ff0000;stroke:#ff0000;" x="180.558724" xlink:href="#m269d57d297" y="255.409305"/>
     <use style="fill:#ff0000;stroke:#ff0000;" x="186.056383" xlink:href="#m269d57d297" y="261.432341"/>
     <use style="fill:#ff0000;stroke:#ff0000;" x="191.554041" xlink:href="#m269d57d297" y="266.250769"/>
     <use style="fill:#ff0000;stroke:#ff0000;" x="197.051699" xlink:href="#m269d57d297" y="272.273805"/>
     <use style="fill:#ff0000;stroke:#ff0000;" x="202.549358" xlink:href="#m269d57d297" y="278.296841"/>
     <use style="fill:#ff0000;stroke:#ff0000;" x="208.047016" xlink:href="#m269d57d297" y="283.115269"/>
     <use style="fill:#ff0000;stroke:#ff0000;" x="213.544675" xlink:href="#m269d57d297" y="286.729091"/>
     <use style="fill:#ff0000;stroke:#ff0000;" x="219.042333" xlink:href="#m269d57d297" y="20.510909"/>
     <use style="fill:#ff0000;stroke:#ff0000;" x="224.539991" xlink:href="#m269d57d297" y="122.902517"/>
     <use style="fill:#ff0000;stroke:#ff0000;" x="230.03765" xlink:href="#m269d57d297" y="145.790053"/>
     <use style="fill:#ff0000;stroke:#ff0000;" x="235.535308" xlink:href="#m269d57d297" y="156.631518"/>
     <use style="fill:#ff0000;stroke:#ff0000;" x="241.032967" xlink:href="#m269d57d297" y="162.654554"/>
     <use style="fill:#ff0000;stroke:#ff0000;" x="246.530625" xlink:href="#m269d57d297" y="172.291411"/>
     <use style="fill:#ff0000;stroke:#ff0000;" x="252.028283" xlink:href="#m269d57d297" y="178.314447"/>
     <use style="fill:#ff0000;stroke:#ff0000;" x="257.525942" xlink:href="#m269d57d297" y="185.54209"/>
     <use style="fill:#ff0000;stroke:#ff0000;" x="263.0236" xlink:href="#m269d57d297" y="193.97434"/>
     <use style="fill:#ff0000;stroke:#ff0000;" x="268.521259" xlink:href="#m269d57d297" y="198.792768"/>
     <use style="fill:#ff0000;stroke:#ff0000;" x="274.018917" xlink:href="#m269d57d297" y="208.429626"/>
     <use style="fill:#ff0000;stroke:#ff0000;" x="279.516575" xlink:href="#m269d57d297" y="214.452661"/>
     <use style="fill:#ff0000;stroke:#ff0000;" x="285.014234" xlink:href="#m269d57d297" y="221.680304"/>
     <use style="fill:#ff0000;stroke:#ff0000;" x="290.511892" xlink:href="#m269d57d297" y="227.70334"/>
     <use style="fill:#ff0000;stroke:#ff0000;" x="296.009551" xlink:href="#m269d57d297" y="45.807659"/>
     <use style="fill:#ff0000;stroke:#ff0000;" x="301.507209" xlink:href="#m269d57d297" y="127.720946"/>
     <use style="fill:#ff0000;stroke:#ff0000;" x="307.004867" xlink:href="#m269d57d297" y="151.813089"/>
     <use style="fill:#ff0000;stroke:#ff0000;" x="312.502526" xlink:href="#m269d57d297" y="149.403875"/>
     <use style="fill:#ff0000;stroke:#ff0000;" x="318.000184" xlink:href="#m269d57d297" y="162.654554"/>
     <use style="fill:#ff0000;stroke:#ff0000;" x="323.497843" xlink:href="#m269d57d297" y="168.677589"/>
     <use style="fill:#ff0000;stroke:#ff0000;" x="328.995501" xlink:href="#m269d57d297" y="177.10984"/>
     <use style="fill:#ff0000;stroke:#ff0000;" x="334.493159" xlink:href="#m269d57d297" y="191.565125"/>
     <use style="fill:#ff0000;stroke:#ff0000;" x="339.990818" xlink:href="#m269d57d297" y="202.40659"/>
     <use style="fill:#ff0000;stroke:#ff0000;" x="345.488476" xlink:href="#m269d57d297" y="213.248054"/>
     <use style="fill:#ff0000;stroke:#ff0000;" x="350.986135" xlink:href="#m269d57d297" y="44.603052"/>
     <use style="fill:#ff0000;stroke:#ff0000;" x="356.483793" xlink:href="#m269d57d297" y="128.925553"/>
     <use style="fill:#ff0000;stroke:#ff0000;" x="361.981451" xlink:href="#m269d57d297" y="146.994661"/>
     <use style="fill:#ff0000;stroke:#ff0000;" x="367.47911" xlink:href="#m269d57d297" y="166.268375"/>
     <use style="fill:#ff0000;stroke:#ff0000;" x="372.976768" xlink:href="#m269d57d297" y="163.859161"/>
     <use style="fill:#ff0000;stroke:#ff0000;" x="378.474427" xlink:href="#m269d57d297" y="173.496018"/>
     <use style="fill:#ff0000;stroke:#ff0000;" x="383.972085" xlink:href="#m269d57d297" y="191.565125"/>
     <use style="fill:#ff0000;stroke:#ff0000;" x="389.469743" xlink:href="#m269d57d297" y="184.337483"/>
     <use style="fill:#ff0000;stroke:#ff0000;" x="394.967402" xlink:href="#m269d57d297" y="193.97434"/>
     <use style="fill:#ff0000;stroke:#ff0000;" x="400.46506" xlink:href="#m269d57d297" y="210.83884"/>
     <use style="fill:#ff0000;stroke:#ff0000;" x="405.962719" xlink:href="#m269d57d297" y="213.248054"/>
     <use style="fill:#ff0000;stroke:#ff0000;" x="411.460377" xlink:href="#m269d57d297" y="218.066483"/>
     <use style="fill:#ff0000;stroke:#ff0000;" x="416.958035" xlink:href="#m269d57d297" y="227.70334"/>
     <use style="fill:#ff0000;stroke:#ff0000;" x="422.455694" xlink:href="#m269d57d297" y="232.521769"/>
     <use style="fill:#ff0000;stroke:#ff0000;" x="427.953352" xlink:href="#m269d57d297" y="254.204698"/>
    </g>
   </g>
   <g id="patch_3">
    <path d="M 46.965625 300.04 
L 46.965625 7.2 
" style="fill:none;stroke:#000000;stroke-linecap:square;stroke-linejoin:miter;stroke-width:0.8;"/>
   </g>
   <g id="patch_4">
    <path d="M 446.095625 300.04 
L 446.095625 7.2 
" style="fill:none;stroke:#000000;stroke-linecap:square;stroke-linejoin:miter;stroke-width:0.8;"/>
   </g>
   <g id="patch_5">
    <path d="M 46.965625 300.04 
L 446.095625 300.04 
" style="fill:none;stroke:#000000;stroke-linecap:square;stroke-linejoin:miter;stroke-width:0.8;"/>
   </g>
   <g id="patch_6">
    <path d="M 46.965625 7.2 
L 446.095625 7.2 
" style="fill:none;stroke:#000000;stroke-linecap:square;stroke-linejoin:miter;stroke-width:0.8;"/>
   </g>
   <g id="legend_1">
    <g id="patch_7">
     <path d="M 53.965625 44.55625 
L 166.539062 44.55625 
Q 168.539062 44.55625 168.539062 42.55625 
L 168.539062 14.2 
Q 168.539062 12.2 166.539062 12.2 
L 53.965625 12.2 
Q 51.965625 12.2 51.965625 14.2 
L 51.965625 42.55625 
Q 51.965625 44.55625 53.965625 44.55625 
z
" style="fill:#ffffff;opacity:0.8;stroke:#cccccc;stroke-linejoin:miter;"/>
    </g>
    <g id="line2d_14">
     <path d="M 55.965625 20.298437 
L 75.965625 20.298437 
" style="fill:none;stroke:#0000ff;stroke-linecap:square;stroke-width:1.5;"/>
    </g>
    <g id="line2d_15">
     <g>
      <use style="fill-opacity:0;stroke:#0000ff;stroke-linejoin:miter;" x="65.965625" xlink:href="#me7dc0d4025" y="20.298437"/>
     </g>
    </g>
    <g id="text_14">
     <!-- 3 group set -->
     <defs>
      <path d="M 45.40625 27.984375 
Q 45.40625 37.75 41.375 43.109375 
Q 37.359375 48.484375 30.078125 48.484375 
Q 22.859375 48.484375 18.828125 43.109375 
Q 14.796875 37.75 14.796875 27.984375 
Q 14.796875 18.265625 18.828125 12.890625 
Q 22.859375 7.515625 30.078125 7.515625 
Q 37.359375 7.515625 41.375 12.890625 
Q 45.40625 18.265625 45.40625 27.984375 
z
M 54.390625 6.78125 
Q 54.390625 -7.171875 48.1875 -13.984375 
Q 42 -20.796875 29.203125 -20.796875 
Q 24.46875 -20.796875 20.265625 -20.09375 
Q 16.0625 -19.390625 12.109375 -17.921875 
L 12.109375 -9.1875 
Q 16.0625 -11.328125 19.921875 -12.34375 
Q 23.78125 -13.375 27.78125 -13.375 
Q 36.625 -13.375 41.015625 -8.765625 
Q 45.40625 -4.15625 45.40625 5.171875 
L 45.40625 9.625 
Q 42.625 4.78125 38.28125 2.390625 
Q 33.9375 0 27.875 0 
Q 17.828125 0 11.671875 7.65625 
Q 5.515625 15.328125 5.515625 27.984375 
Q 5.515625 40.671875 11.671875 48.328125 
Q 17.828125 56 27.875 56 
Q 33.9375 56 38.28125 53.609375 
Q 42.625 51.21875 45.40625 46.390625 
L 45.40625 54.6875 
L 54.390625 54.6875 
z
" id="DejaVuSans-103"/>
      <path d="M 8.5 21.578125 
L 8.5 54.6875 
L 17.484375 54.6875 
L 17.484375 21.921875 
Q 17.484375 14.15625 20.5 10.265625 
Q 23.53125 6.390625 29.59375 6.390625 
Q 36.859375 6.390625 41.078125 11.03125 
Q 45.3125 15.671875 45.3125 23.6875 
L 45.3125 54.6875 
L 54.296875 54.6875 
L 54.296875 0 
L 45.3125 0 
L 45.3125 8.40625 
Q 42.046875 3.421875 37.71875 1 
Q 33.40625 -1.421875 27.6875 -1.421875 
Q 18.265625 -1.421875 13.375 4.4375 
Q 8.5 10.296875 8.5 21.578125 
z
M 31.109375 56 
z
" id="DejaVuSans-117"/>
      <path d="M 18.109375 8.203125 
L 18.109375 -20.796875 
L 9.078125 -20.796875 
L 9.078125 54.6875 
L 18.109375 54.6875 
L 18.109375 46.390625 
Q 20.953125 51.265625 25.265625 53.625 
Q 29.59375 56 35.59375 56 
Q 45.5625 56 51.78125 48.09375 
Q 58.015625 40.1875 58.015625 27.296875 
Q 58.015625 14.40625 51.78125 6.484375 
Q 45.5625 -1.421875 35.59375 -1.421875 
Q 29.59375 -1.421875 25.265625 0.953125 
Q 20.953125 3.328125 18.109375 8.203125 
z
M 48.6875 27.296875 
Q 48.6875 37.203125 44.609375 42.84375 
Q 40.53125 48.484375 33.40625 48.484375 
Q 26.265625 48.484375 22.1875 42.84375 
Q 18.109375 37.203125 18.109375 27.296875 
Q 18.109375 17.390625 22.1875 11.75 
Q 26.265625 6.109375 33.40625 6.109375 
Q 40.53125 6.109375 44.609375 11.75 
Q 48.6875 17.390625 48.6875 27.296875 
z
" id="DejaVuSans-112"/>
     </defs>
     <g transform="translate(83.965625 23.798437)scale(0.1 -0.1)">
      <use xlink:href="#DejaVuSans-51"/>
      <use x="63.623047" xlink:href="#DejaVuSans-32"/>
      <use x="95.410156" xlink:href="#DejaVuSans-103"/>
      <use x="158.886719" xlink:href="#DejaVuSans-114"/>
      <use x="199.96875" xlink:href="#DejaVuSans-111"/>
      <use x="261.150391" xlink:href="#DejaVuSans-117"/>
      <use x="324.529297" xlink:href="#DejaVuSans-112"/>
      <use x="388.005859" xlink:href="#DejaVuSans-32"/>
      <use x="419.792969" xlink:href="#DejaVuSans-115"/>
      <use x="471.892578" xlink:href="#DejaVuSans-101"/>
      <use x="533.416016" xlink:href="#DejaVuSans-116"/>
     </g>
    </g>
    <g id="line2d_16">
     <path d="M 55.965625 34.976562 
L 75.965625 34.976562 
" style="fill:none;stroke:#ff0000;stroke-dasharray:5.55,2.4;stroke-dashoffset:0;stroke-width:1.5;"/>
    </g>
    <g id="line2d_17">
     <g>
      <use style="fill:#ff0000;stroke:#ff0000;" x="65.965625" xlink:href="#m269d57d297" y="34.976562"/>
     </g>
    </g>
    <g id="text_15">
     <!-- 3 group set DLB -->
     <defs>
      <path d="M 19.671875 64.796875 
L 19.671875 8.109375 
L 31.59375 8.109375 
Q 46.6875 8.109375 53.6875 14.9375 
Q 60.6875 21.78125 60.6875 36.53125 
Q 60.6875 51.171875 53.6875 57.984375 
Q 46.6875 64.796875 31.59375 64.796875 
z
M 9.8125 72.90625 
L 30.078125 72.90625 
Q 51.265625 72.90625 61.171875 64.09375 
Q 71.09375 55.28125 71.09375 36.53125 
Q 71.09375 17.671875 61.125 8.828125 
Q 51.171875 0 30.078125 0 
L 9.8125 0 
z
" id="DejaVuSans-68"/>
      <path d="M 9.8125 72.90625 
L 19.671875 72.90625 
L 19.671875 8.296875 
L 55.171875 8.296875 
L 55.171875 0 
L 9.8125 0 
z
" id="DejaVuSans-76"/>
      <path d="M 19.671875 34.8125 
L 19.671875 8.109375 
L 35.5 8.109375 
Q 43.453125 8.109375 47.28125 11.40625 
Q 51.125 14.703125 51.125 21.484375 
Q 51.125 28.328125 47.28125 31.5625 
Q 43.453125 34.8125 35.5 34.8125 
z
M 19.671875 64.796875 
L 19.671875 42.828125 
L 34.28125 42.828125 
Q 41.5 42.828125 45.03125 45.53125 
Q 48.578125 48.25 48.578125 53.8125 
Q 48.578125 59.328125 45.03125 62.0625 
Q 41.5 64.796875 34.28125 64.796875 
z
M 9.8125 72.90625 
L 35.015625 72.90625 
Q 46.296875 72.90625 52.390625 68.21875 
Q 58.5 63.53125 58.5 54.890625 
Q 58.5 48.1875 55.375 44.234375 
Q 52.25 40.28125 46.1875 39.3125 
Q 53.46875 37.75 57.5 32.78125 
Q 61.53125 27.828125 61.53125 20.40625 
Q 61.53125 10.640625 54.890625 5.3125 
Q 48.25 0 35.984375 0 
L 9.8125 0 
z
" id="DejaVuSans-66"/>
     </defs>
     <g transform="translate(83.965625 38.476562)scale(0.1 -0.1)">
      <use xlink:href="#DejaVuSans-51"/>
      <use x="63.623047" xlink:href="#DejaVuSans-32"/>
      <use x="95.410156" xlink:href="#DejaVuSans-103"/>
      <use x="158.886719" xlink:href="#DejaVuSans-114"/>
      <use x="199.96875" xlink:href="#DejaVuSans-111"/>
      <use x="261.150391" xlink:href="#DejaVuSans-117"/>
      <use x="324.529297" xlink:href="#DejaVuSans-112"/>
      <use x="388.005859" xlink:href="#DejaVuSans-32"/>
      <use x="419.792969" xlink:href="#DejaVuSans-115"/>
      <use x="471.892578" xlink:href="#DejaVuSans-101"/>
      <use x="533.416016" xlink:href="#DejaVuSans-116"/>
      <use x="572.625" xlink:href="#DejaVuSans-32"/>
      <use x="604.412109" xlink:href="#DejaVuSans-68"/>
      <use x="681.414062" xlink:href="#DejaVuSans-76"/>
      <use x="737.126953" xlink:href="#DejaVuSans-66"/>
     </g>
    </g>
   </g>
  </g>
 </g>
 <defs>
  <clipPath id="p67c94b8999">
   <rect height="292.84" width="399.13" x="46.965625" y="7.2"/>
  </clipPath>
 </defs>
</svg>
