<?xml version="1.0" encoding="utf-8" standalone="no"?>
<!DOCTYPE svg PUBLIC "-//W3C//DTD SVG 1.1//EN"
  "http://www.w3.org/Graphics/SVG/1.1/DTD/svg11.dtd">
<!-- Created with matplotlib (https://matplotlib.org/) -->
<svg height="337.59625pt" version="1.1" viewBox="0 0 453.205625 337.59625" width="453.205625pt" xmlns="http://www.w3.org/2000/svg" xmlns:xlink="http://www.w3.org/1999/xlink">
 <defs>
  <style type="text/css">
*{stroke-linecap:butt;stroke-linejoin:round;}
  </style>
 </defs>
 <g id="figure_1">
  <g id="patch_1">
   <path d="M 0 337.59625 
L 453.205625 337.59625 
L 453.205625 0 
L 0 0 
z
" style="fill:#ffffff;"/>
  </g>
  <g id="axes_1">
   <g id="patch_2">
    <path d="M 46.965625 300.04 
L 446.005625 300.04 
L 446.005625 7.2 
L 46.965625 7.2 
z
" style="fill:#ffffff;"/>
   </g>
   <g id="matplotlib.axis_1">
    <g id="xtick_1">
     <g id="line2d_1">
      <defs>
       <path d="M 0 0 
L 0 3.5 
" id="mc40e82ac65" style="stroke:#000000;stroke-width:0.8;"/>
      </defs>
      <g>
       <use style="stroke:#000000;stroke-width:0.8;" x="65.103807" xlink:href="#mc40e82ac65" y="300.04"/>
      </g>
     </g>
     <g id="text_1">
      <!-- 0 -->
      <defs>
       <path d="M 31.78125 66.40625 
Q 24.171875 66.40625 20.328125 58.90625 
Q 16.5 51.421875 16.5 36.375 
Q 16.5 21.390625 20.328125 13.890625 
Q 24.171875 6.390625 31.78125 6.390625 
Q 39.453125 6.390625 43.28125 13.890625 
Q 47.125 21.390625 47.125 36.375 
Q 47.125 51.421875 43.28125 58.90625 
Q 39.453125 66.40625 31.78125 66.40625 
z
M 31.78125 74.21875 
Q 44.046875 74.21875 50.515625 64.515625 
Q 56.984375 54.828125 56.984375 36.375 
Q 56.984375 17.96875 50.515625 8.265625 
Q 44.046875 -1.421875 31.78125 -1.421875 
Q 19.53125 -1.421875 13.0625 8.265625 
Q 6.59375 17.96875 6.59375 36.375 
Q 6.59375 54.828125 13.0625 64.515625 
Q 19.53125 74.21875 31.78125 74.21875 
z
" id="DejaVuSans-48"/>
      </defs>
      <g transform="translate(61.922557 314.638437)scale(0.1 -0.1)">
       <use xlink:href="#DejaVuSans-48"/>
      </g>
     </g>
    </g>
    <g id="xtick_2">
     <g id="line2d_2">
      <g>
       <use style="stroke:#000000;stroke-width:0.8;" x="120.067994" xlink:href="#mc40e82ac65" y="300.04"/>
      </g>
     </g>
     <g id="text_2">
      <!-- 10 -->
      <defs>
       <path d="M 12.40625 8.296875 
L 28.515625 8.296875 
L 28.515625 63.921875 
L 10.984375 60.40625 
L 10.984375 69.390625 
L 28.421875 72.90625 
L 38.28125 72.90625 
L 38.28125 8.296875 
L 54.390625 8.296875 
L 54.390625 0 
L 12.40625 0 
z
" id="DejaVuSans-49"/>
      </defs>
      <g transform="translate(113.705494 314.638437)scale(0.1 -0.1)">
       <use xlink:href="#DejaVuSans-49"/>
       <use x="63.623047" xlink:href="#DejaVuSans-48"/>
      </g>
     </g>
    </g>
    <g id="xtick_3">
     <g id="line2d_3">
      <g>
       <use style="stroke:#000000;stroke-width:0.8;" x="175.032181" xlink:href="#mc40e82ac65" y="300.04"/>
      </g>
     </g>
     <g id="text_3">
      <!-- 20 -->
      <defs>
       <path d="M 19.1875 8.296875 
L 53.609375 8.296875 
L 53.609375 0 
L 7.328125 0 
L 7.328125 8.296875 
Q 12.9375 14.109375 22.625 23.890625 
Q 32.328125 33.6875 34.8125 36.53125 
Q 39.546875 41.84375 41.421875 45.53125 
Q 43.3125 49.21875 43.3125 52.78125 
Q 43.3125 58.59375 39.234375 62.25 
Q 35.15625 65.921875 28.609375 65.921875 
Q 23.96875 65.921875 18.8125 64.3125 
Q 13.671875 62.703125 7.8125 59.421875 
L 7.8125 69.390625 
Q 13.765625 71.78125 18.9375 73 
Q 24.125 74.21875 28.421875 74.21875 
Q 39.75 74.21875 46.484375 68.546875 
Q 53.21875 62.890625 53.21875 53.421875 
Q 53.21875 48.921875 51.53125 44.890625 
Q 49.859375 40.875 45.40625 35.40625 
Q 44.1875 33.984375 37.640625 27.21875 
Q 31.109375 20.453125 19.1875 8.296875 
z
" id="DejaVuSans-50"/>
      </defs>
      <g transform="translate(168.669681 314.638437)scale(0.1 -0.1)">
       <use xlink:href="#DejaVuSans-50"/>
       <use x="63.623047" xlink:href="#DejaVuSans-48"/>
      </g>
     </g>
    </g>
    <g id="xtick_4">
     <g id="line2d_4">
      <g>
       <use style="stroke:#000000;stroke-width:0.8;" x="229.996369" xlink:href="#mc40e82ac65" y="300.04"/>
      </g>
     </g>
     <g id="text_4">
      <!-- 30 -->
      <defs>
       <path d="M 40.578125 39.3125 
Q 47.65625 37.796875 51.625 33 
Q 55.609375 28.21875 55.609375 21.1875 
Q 55.609375 10.40625 48.1875 4.484375 
Q 40.765625 -1.421875 27.09375 -1.421875 
Q 22.515625 -1.421875 17.65625 -0.515625 
Q 12.796875 0.390625 7.625 2.203125 
L 7.625 11.71875 
Q 11.71875 9.328125 16.59375 8.109375 
Q 21.484375 6.890625 26.8125 6.890625 
Q 36.078125 6.890625 40.9375 10.546875 
Q 45.796875 14.203125 45.796875 21.1875 
Q 45.796875 27.640625 41.28125 31.265625 
Q 36.765625 34.90625 28.71875 34.90625 
L 20.21875 34.90625 
L 20.21875 43.015625 
L 29.109375 43.015625 
Q 36.375 43.015625 40.234375 45.921875 
Q 44.09375 48.828125 44.09375 54.296875 
Q 44.09375 59.90625 40.109375 62.90625 
Q 36.140625 65.921875 28.71875 65.921875 
Q 24.65625 65.921875 20.015625 65.03125 
Q 15.375 64.15625 9.8125 62.3125 
L 9.8125 71.09375 
Q 15.4375 72.65625 20.34375 73.4375 
Q 25.25 74.21875 29.59375 74.21875 
Q 40.828125 74.21875 47.359375 69.109375 
Q 53.90625 64.015625 53.90625 55.328125 
Q 53.90625 49.265625 50.4375 45.09375 
Q 46.96875 40.921875 40.578125 39.3125 
z
" id="DejaVuSans-51"/>
      </defs>
      <g transform="translate(223.633869 314.638437)scale(0.1 -0.1)">
       <use xlink:href="#DejaVuSans-51"/>
       <use x="63.623047" xlink:href="#DejaVuSans-48"/>
      </g>
     </g>
    </g>
    <g id="xtick_5">
     <g id="line2d_5">
      <g>
       <use style="stroke:#000000;stroke-width:0.8;" x="284.960556" xlink:href="#mc40e82ac65" y="300.04"/>
      </g>
     </g>
     <g id="text_5">
      <!-- 40 -->
      <defs>
       <path d="M 37.796875 64.3125 
L 12.890625 25.390625 
L 37.796875 25.390625 
z
M 35.203125 72.90625 
L 47.609375 72.90625 
L 47.609375 25.390625 
L 58.015625 25.390625 
L 58.015625 17.1875 
L 47.609375 17.1875 
L 47.609375 0 
L 37.796875 0 
L 37.796875 17.1875 
L 4.890625 17.1875 
L 4.890625 26.703125 
z
" id="DejaVuSans-52"/>
      </defs>
      <g transform="translate(278.598056 314.638437)scale(0.1 -0.1)">
       <use xlink:href="#DejaVuSans-52"/>
       <use x="63.623047" xlink:href="#DejaVuSans-48"/>
      </g>
     </g>
    </g>
    <g id="xtick_6">
     <g id="line2d_6">
      <g>
       <use style="stroke:#000000;stroke-width:0.8;" x="339.924743" xlink:href="#mc40e82ac65" y="300.04"/>
      </g>
     </g>
     <g id="text_6">
      <!-- 50 -->
      <defs>
       <path d="M 10.796875 72.90625 
L 49.515625 72.90625 
L 49.515625 64.59375 
L 19.828125 64.59375 
L 19.828125 46.734375 
Q 21.96875 47.46875 24.109375 47.828125 
Q 26.265625 48.1875 28.421875 48.1875 
Q 40.625 48.1875 47.75 41.5 
Q 54.890625 34.8125 54.890625 23.390625 
Q 54.890625 11.625 47.5625 5.09375 
Q 40.234375 -1.421875 26.90625 -1.421875 
Q 22.3125 -1.421875 17.546875 -0.640625 
Q 12.796875 0.140625 7.71875 1.703125 
L 7.71875 11.625 
Q 12.109375 9.234375 16.796875 8.0625 
Q 21.484375 6.890625 26.703125 6.890625 
Q 35.15625 6.890625 40.078125 11.328125 
Q 45.015625 15.765625 45.015625 23.390625 
Q 45.015625 31 40.078125 35.4375 
Q 35.15625 39.890625 26.703125 39.890625 
Q 22.75 39.890625 18.8125 39.015625 
Q 14.890625 38.140625 10.796875 36.28125 
z
" id="DejaVuSans-53"/>
      </defs>
      <g transform="translate(333.562243 314.638437)scale(0.1 -0.1)">
       <use xlink:href="#DejaVuSans-53"/>
       <use x="63.623047" xlink:href="#DejaVuSans-48"/>
      </g>
     </g>
    </g>
    <g id="xtick_7">
     <g id="line2d_7">
      <g>
       <use style="stroke:#000000;stroke-width:0.8;" x="394.888931" xlink:href="#mc40e82ac65" y="300.04"/>
      </g>
     </g>
     <g id="text_7">
      <!-- 60 -->
      <defs>
       <path d="M 33.015625 40.375 
Q 26.375 40.375 22.484375 35.828125 
Q 18.609375 31.296875 18.609375 23.390625 
Q 18.609375 15.53125 22.484375 10.953125 
Q 26.375 6.390625 33.015625 6.390625 
Q 39.65625 6.390625 43.53125 10.953125 
Q 47.40625 15.53125 47.40625 23.390625 
Q 47.40625 31.296875 43.53125 35.828125 
Q 39.65625 40.375 33.015625 40.375 
z
M 52.59375 71.296875 
L 52.59375 62.3125 
Q 48.875 64.0625 45.09375 64.984375 
Q 41.3125 65.921875 37.59375 65.921875 
Q 27.828125 65.921875 22.671875 59.328125 
Q 17.53125 52.734375 16.796875 39.40625 
Q 19.671875 43.65625 24.015625 45.921875 
Q 28.375 48.1875 33.59375 48.1875 
Q 44.578125 48.1875 50.953125 41.515625 
Q 57.328125 34.859375 57.328125 23.390625 
Q 57.328125 12.15625 50.6875 5.359375 
Q 44.046875 -1.421875 33.015625 -1.421875 
Q 20.359375 -1.421875 13.671875 8.265625 
Q 6.984375 17.96875 6.984375 36.375 
Q 6.984375 53.65625 15.1875 63.9375 
Q 23.390625 74.21875 37.203125 74.21875 
Q 40.921875 74.21875 44.703125 73.484375 
Q 48.484375 72.75 52.59375 71.296875 
z
" id="DejaVuSans-54"/>
      </defs>
      <g transform="translate(388.526431 314.638437)scale(0.1 -0.1)">
       <use xlink:href="#DejaVuSans-54"/>
       <use x="63.623047" xlink:href="#DejaVuSans-48"/>
      </g>
     </g>
    </g>
    <g id="text_8">
     <!-- Total Power iterations -->
     <defs>
      <path d="M -0.296875 72.90625 
L 61.375 72.90625 
L 61.375 64.59375 
L 35.5 64.59375 
L 35.5 0 
L 25.59375 0 
L 25.59375 64.59375 
L -0.296875 64.59375 
z
" id="DejaVuSans-84"/>
      <path d="M 30.609375 48.390625 
Q 23.390625 48.390625 19.1875 42.75 
Q 14.984375 37.109375 14.984375 27.296875 
Q 14.984375 17.484375 19.15625 11.84375 
Q 23.34375 6.203125 30.609375 6.203125 
Q 37.796875 6.203125 41.984375 11.859375 
Q 46.1875 17.53125 46.1875 27.296875 
Q 46.1875 37.015625 41.984375 42.703125 
Q 37.796875 48.390625 30.609375 48.390625 
z
M 30.609375 56 
Q 42.328125 56 49.015625 48.375 
Q 55.71875 40.765625 55.71875 27.296875 
Q 55.71875 13.875 49.015625 6.21875 
Q 42.328125 -1.421875 30.609375 -1.421875 
Q 18.84375 -1.421875 12.171875 6.21875 
Q 5.515625 13.875 5.515625 27.296875 
Q 5.515625 40.765625 12.171875 48.375 
Q 18.84375 56 30.609375 56 
z
" id="DejaVuSans-111"/>
      <path d="M 18.3125 70.21875 
L 18.3125 54.6875 
L 36.8125 54.6875 
L 36.8125 47.703125 
L 18.3125 47.703125 
L 18.3125 18.015625 
Q 18.3125 11.328125 20.140625 9.421875 
Q 21.96875 7.515625 27.59375 7.515625 
L 36.8125 7.515625 
L 36.8125 0 
L 27.59375 0 
Q 17.1875 0 13.234375 3.875 
Q 9.28125 7.765625 9.28125 18.015625 
L 9.28125 47.703125 
L 2.6875 47.703125 
L 2.6875 54.6875 
L 9.28125 54.6875 
L 9.28125 70.21875 
z
" id="DejaVuSans-116"/>
      <path d="M 34.28125 27.484375 
Q 23.390625 27.484375 19.1875 25 
Q 14.984375 22.515625 14.984375 16.5 
Q 14.984375 11.71875 18.140625 8.90625 
Q 21.296875 6.109375 26.703125 6.109375 
Q 34.1875 6.109375 38.703125 11.40625 
Q 43.21875 16.703125 43.21875 25.484375 
L 43.21875 27.484375 
z
M 52.203125 31.203125 
L 52.203125 0 
L 43.21875 0 
L 43.21875 8.296875 
Q 40.140625 3.328125 35.546875 0.953125 
Q 30.953125 -1.421875 24.3125 -1.421875 
Q 15.921875 -1.421875 10.953125 3.296875 
Q 6 8.015625 6 15.921875 
Q 6 25.140625 12.171875 29.828125 
Q 18.359375 34.515625 30.609375 34.515625 
L 43.21875 34.515625 
L 43.21875 35.40625 
Q 43.21875 41.609375 39.140625 45 
Q 35.0625 48.390625 27.6875 48.390625 
Q 23 48.390625 18.546875 47.265625 
Q 14.109375 46.140625 10.015625 43.890625 
L 10.015625 52.203125 
Q 14.9375 54.109375 19.578125 55.046875 
Q 24.21875 56 28.609375 56 
Q 40.484375 56 46.34375 49.84375 
Q 52.203125 43.703125 52.203125 31.203125 
z
" id="DejaVuSans-97"/>
      <path d="M 9.421875 75.984375 
L 18.40625 75.984375 
L 18.40625 0 
L 9.421875 0 
z
" id="DejaVuSans-108"/>
      <path id="DejaVuSans-32"/>
      <path d="M 19.671875 64.796875 
L 19.671875 37.40625 
L 32.078125 37.40625 
Q 38.96875 37.40625 42.71875 40.96875 
Q 46.484375 44.53125 46.484375 51.125 
Q 46.484375 57.671875 42.71875 61.234375 
Q 38.96875 64.796875 32.078125 64.796875 
z
M 9.8125 72.90625 
L 32.078125 72.90625 
Q 44.34375 72.90625 50.609375 67.359375 
Q 56.890625 61.8125 56.890625 51.125 
Q 56.890625 40.328125 50.609375 34.8125 
Q 44.34375 29.296875 32.078125 29.296875 
L 19.671875 29.296875 
L 19.671875 0 
L 9.8125 0 
z
" id="DejaVuSans-80"/>
      <path d="M 4.203125 54.6875 
L 13.1875 54.6875 
L 24.421875 12.015625 
L 35.59375 54.6875 
L 46.1875 54.6875 
L 57.421875 12.015625 
L 68.609375 54.6875 
L 77.59375 54.6875 
L 63.28125 0 
L 52.6875 0 
L 40.921875 44.828125 
L 29.109375 0 
L 18.5 0 
z
" id="DejaVuSans-119"/>
      <path d="M 56.203125 29.59375 
L 56.203125 25.203125 
L 14.890625 25.203125 
Q 15.484375 15.921875 20.484375 11.0625 
Q 25.484375 6.203125 34.421875 6.203125 
Q 39.59375 6.203125 44.453125 7.46875 
Q 49.3125 8.734375 54.109375 11.28125 
L 54.109375 2.78125 
Q 49.265625 0.734375 44.1875 -0.34375 
Q 39.109375 -1.421875 33.890625 -1.421875 
Q 20.796875 -1.421875 13.15625 6.1875 
Q 5.515625 13.8125 5.515625 26.8125 
Q 5.515625 40.234375 12.765625 48.109375 
Q 20.015625 56 32.328125 56 
Q 43.359375 56 49.78125 48.890625 
Q 56.203125 41.796875 56.203125 29.59375 
z
M 47.21875 32.234375 
Q 47.125 39.59375 43.09375 43.984375 
Q 39.0625 48.390625 32.421875 48.390625 
Q 24.90625 48.390625 20.390625 44.140625 
Q 15.875 39.890625 15.1875 32.171875 
z
" id="DejaVuSans-101"/>
      <path d="M 41.109375 46.296875 
Q 39.59375 47.171875 37.8125 47.578125 
Q 36.03125 48 33.890625 48 
Q 26.265625 48 22.1875 43.046875 
Q 18.109375 38.09375 18.109375 28.8125 
L 18.109375 0 
L 9.078125 0 
L 9.078125 54.6875 
L 18.109375 54.6875 
L 18.109375 46.1875 
Q 20.953125 51.171875 25.484375 53.578125 
Q 30.03125 56 36.53125 56 
Q 37.453125 56 38.578125 55.875 
Q 39.703125 55.765625 41.0625 55.515625 
z
" id="DejaVuSans-114"/>
      <path d="M 9.421875 54.6875 
L 18.40625 54.6875 
L 18.40625 0 
L 9.421875 0 
z
M 9.421875 75.984375 
L 18.40625 75.984375 
L 18.40625 64.59375 
L 9.421875 64.59375 
z
" id="DejaVuSans-105"/>
      <path d="M 54.890625 33.015625 
L 54.890625 0 
L 45.90625 0 
L 45.90625 32.71875 
Q 45.90625 40.484375 42.875 44.328125 
Q 39.84375 48.1875 33.796875 48.1875 
Q 26.515625 48.1875 22.3125 43.546875 
Q 18.109375 38.921875 18.109375 30.90625 
L 18.109375 0 
L 9.078125 0 
L 9.078125 54.6875 
L 18.109375 54.6875 
L 18.109375 46.1875 
Q 21.34375 51.125 25.703125 53.5625 
Q 30.078125 56 35.796875 56 
Q 45.21875 56 50.046875 50.171875 
Q 54.890625 44.34375 54.890625 33.015625 
z
" id="DejaVuSans-110"/>
      <path d="M 44.28125 53.078125 
L 44.28125 44.578125 
Q 40.484375 46.53125 36.375 47.5 
Q 32.28125 48.484375 27.875 48.484375 
Q 21.1875 48.484375 17.84375 46.4375 
Q 14.5 44.390625 14.5 40.28125 
Q 14.5 37.15625 16.890625 35.375 
Q 19.28125 33.59375 26.515625 31.984375 
L 29.59375 31.296875 
Q 39.15625 29.25 43.1875 25.515625 
Q 47.21875 21.78125 47.21875 15.09375 
Q 47.21875 7.46875 41.1875 3.015625 
Q 35.15625 -1.421875 24.609375 -1.421875 
Q 20.21875 -1.421875 15.453125 -0.5625 
Q 10.6875 0.296875 5.421875 2 
L 5.421875 11.28125 
Q 10.40625 8.6875 15.234375 7.390625 
Q 20.0625 6.109375 24.8125 6.109375 
Q 31.15625 6.109375 34.5625 8.28125 
Q 37.984375 10.453125 37.984375 14.40625 
Q 37.984375 18.0625 35.515625 20.015625 
Q 33.0625 21.96875 24.703125 23.78125 
L 21.578125 24.515625 
Q 13.234375 26.265625 9.515625 29.90625 
Q 5.8125 33.546875 5.8125 39.890625 
Q 5.8125 47.609375 11.28125 51.796875 
Q 16.75 56 26.8125 56 
Q 31.78125 56 36.171875 55.265625 
Q 40.578125 54.546875 44.28125 53.078125 
z
" id="DejaVuSans-115"/>
     </defs>
     <g transform="translate(191.773906 328.316562)scale(0.1 -0.1)">
      <use xlink:href="#DejaVuSans-84"/>
      <use x="60.818359" xlink:href="#DejaVuSans-111"/>
      <use x="122" xlink:href="#DejaVuSans-116"/>
      <use x="161.208984" xlink:href="#DejaVuSans-97"/>
      <use x="222.488281" xlink:href="#DejaVuSans-108"/>
      <use x="250.271484" xlink:href="#DejaVuSans-32"/>
      <use x="282.058594" xlink:href="#DejaVuSans-80"/>
      <use x="342.314453" xlink:href="#DejaVuSans-111"/>
      <use x="403.496094" xlink:href="#DejaVuSans-119"/>
      <use x="485.283203" xlink:href="#DejaVuSans-101"/>
      <use x="546.806641" xlink:href="#DejaVuSans-114"/>
      <use x="587.919922" xlink:href="#DejaVuSans-32"/>
      <use x="619.707031" xlink:href="#DejaVuSans-105"/>
      <use x="647.490234" xlink:href="#DejaVuSans-116"/>
      <use x="686.699219" xlink:href="#DejaVuSans-101"/>
      <use x="748.222656" xlink:href="#DejaVuSans-114"/>
      <use x="789.335938" xlink:href="#DejaVuSans-97"/>
      <use x="850.615234" xlink:href="#DejaVuSans-116"/>
      <use x="889.824219" xlink:href="#DejaVuSans-105"/>
      <use x="917.607422" xlink:href="#DejaVuSans-111"/>
      <use x="978.789062" xlink:href="#DejaVuSans-110"/>
      <use x="1042.167969" xlink:href="#DejaVuSans-115"/>
     </g>
    </g>
   </g>
   <g id="matplotlib.axis_2">
    <g id="ytick_1">
     <g id="line2d_8">
      <defs>
       <path d="M 0 0 
L -3.5 0 
" id="md29581f60e" style="stroke:#000000;stroke-width:0.8;"/>
      </defs>
      <g>
       <use style="stroke:#000000;stroke-width:0.8;" x="46.965625" xlink:href="#md29581f60e" y="254.8579"/>
      </g>
     </g>
     <g id="text_9">
      <!-- 300 -->
      <g transform="translate(20.878125 258.657119)scale(0.1 -0.1)">
       <use xlink:href="#DejaVuSans-51"/>
       <use x="63.623047" xlink:href="#DejaVuSans-48"/>
       <use x="127.246094" xlink:href="#DejaVuSans-48"/>
      </g>
     </g>
    </g>
    <g id="ytick_2">
     <g id="line2d_9">
      <g>
       <use style="stroke:#000000;stroke-width:0.8;" x="46.965625" xlink:href="#md29581f60e" y="207.988502"/>
      </g>
     </g>
     <g id="text_10">
      <!-- 350 -->
      <g transform="translate(20.878125 211.787721)scale(0.1 -0.1)">
       <use xlink:href="#DejaVuSans-51"/>
       <use x="63.623047" xlink:href="#DejaVuSans-53"/>
       <use x="127.246094" xlink:href="#DejaVuSans-48"/>
      </g>
     </g>
    </g>
    <g id="ytick_3">
     <g id="line2d_10">
      <g>
       <use style="stroke:#000000;stroke-width:0.8;" x="46.965625" xlink:href="#md29581f60e" y="161.119104"/>
      </g>
     </g>
     <g id="text_11">
      <!-- 400 -->
      <g transform="translate(20.878125 164.918322)scale(0.1 -0.1)">
       <use xlink:href="#DejaVuSans-52"/>
       <use x="63.623047" xlink:href="#DejaVuSans-48"/>
       <use x="127.246094" xlink:href="#DejaVuSans-48"/>
      </g>
     </g>
    </g>
    <g id="ytick_4">
     <g id="line2d_11">
      <g>
       <use style="stroke:#000000;stroke-width:0.8;" x="46.965625" xlink:href="#md29581f60e" y="114.249706"/>
      </g>
     </g>
     <g id="text_12">
      <!-- 450 -->
      <g transform="translate(20.878125 118.048924)scale(0.1 -0.1)">
       <use xlink:href="#DejaVuSans-52"/>
       <use x="63.623047" xlink:href="#DejaVuSans-53"/>
       <use x="127.246094" xlink:href="#DejaVuSans-48"/>
      </g>
     </g>
    </g>
    <g id="ytick_5">
     <g id="line2d_12">
      <g>
       <use style="stroke:#000000;stroke-width:0.8;" x="46.965625" xlink:href="#md29581f60e" y="67.380307"/>
      </g>
     </g>
     <g id="text_13">
      <!-- 500 -->
      <g transform="translate(20.878125 71.179526)scale(0.1 -0.1)">
       <use xlink:href="#DejaVuSans-53"/>
       <use x="63.623047" xlink:href="#DejaVuSans-48"/>
       <use x="127.246094" xlink:href="#DejaVuSans-48"/>
      </g>
     </g>
    </g>
    <g id="ytick_6">
     <g id="line2d_13">
      <g>
       <use style="stroke:#000000;stroke-width:0.8;" x="46.965625" xlink:href="#md29581f60e" y="20.510909"/>
      </g>
     </g>
     <g id="text_14">
      <!-- 550 -->
      <g transform="translate(20.878125 24.310128)scale(0.1 -0.1)">
       <use xlink:href="#DejaVuSans-53"/>
       <use x="63.623047" xlink:href="#DejaVuSans-53"/>
       <use x="127.246094" xlink:href="#DejaVuSans-48"/>
      </g>
     </g>
    </g>
    <g id="text_15">
     <!-- InnerIterations -->
     <defs>
      <path d="M 9.8125 72.90625 
L 19.671875 72.90625 
L 19.671875 0 
L 9.8125 0 
z
" id="DejaVuSans-73"/>
     </defs>
     <g transform="translate(14.798437 190.377812)rotate(-90)scale(0.1 -0.1)">
      <use xlink:href="#DejaVuSans-73"/>
      <use x="29.492188" xlink:href="#DejaVuSans-110"/>
      <use x="92.871094" xlink:href="#DejaVuSans-110"/>
      <use x="156.25" xlink:href="#DejaVuSans-101"/>
      <use x="217.773438" xlink:href="#DejaVuSans-114"/>
      <use x="258.886719" xlink:href="#DejaVuSans-73"/>
      <use x="288.378906" xlink:href="#DejaVuSans-116"/>
      <use x="327.587891" xlink:href="#DejaVuSans-101"/>
      <use x="389.111328" xlink:href="#DejaVuSans-114"/>
      <use x="430.224609" xlink:href="#DejaVuSans-97"/>
      <use x="491.503906" xlink:href="#DejaVuSans-116"/>
      <use x="530.712891" xlink:href="#DejaVuSans-105"/>
      <use x="558.496094" xlink:href="#DejaVuSans-111"/>
      <use x="619.677734" xlink:href="#DejaVuSans-110"/>
      <use x="683.056641" xlink:href="#DejaVuSans-115"/>
     </g>
    </g>
   </g>
   <g id="line2d_14">
    <path clip-path="url(#p28676a02ba)" d="M 65.103807 120.811421 
L 70.600226 178.929475 
L 76.096644 183.616415 
L 81.593063 190.178131 
L 87.089482 192.990294 
L 92.5859 196.739846 
L 98.082319 199.55201 
L 103.578738 203.301562 
L 109.075157 209.863278 
L 114.571575 213.61283 
L 120.067994 217.362382 
L 125.564413 220.174545 
L 131.060832 224.861485 
L 136.55725 229.548425 
L 142.053669 234.235365 
L 147.550088 238.922305 
L 153.046507 240.797081 
L 158.542925 246.421408 
L 164.039344 250.17096 
L 169.535763 255.795288 
L 175.032181 260.482228 
L 180.5286 262.357004 
L 186.025019 267.043944 
L 191.521438 270.793496 
L 197.017856 275.480435 
L 202.514275 280.167375 
L 208.010694 283.916927 
L 213.507113 286.729091 
L 219.003531 79.566351 
L 224.49995 159.244328 
L 229.996369 177.054699 
L 235.492788 185.491191 
L 240.989206 190.178131 
L 246.485625 197.677234 
L 251.982044 202.364174 
L 257.478462 207.988502 
L 262.974881 214.550218 
L 268.4713 218.29977 
L 273.967719 225.798873 
L 279.464137 230.485813 
L 284.960556 236.110141 
L 290.456975 240.797081 
L 295.953394 99.251498 
L 301.449812 168.618207 
L 306.946231 186.428579 
L 312.44265 191.115519 
L 317.939069 198.614622 
L 323.435487 204.23895 
L 328.931906 209.863278 
L 334.428325 213.61283 
L 339.924743 221.111933 
L 345.421162 91.752394 
L 350.917581 177.992087 
L 356.414 193.927682 
" style="fill:none;stroke:#0000ff;stroke-linecap:square;stroke-width:1.5;"/>
    <defs>
     <path d="M -3 3 
L 3 3 
L 3 -3 
L -3 -3 
z
" id="m74656a318f" style="stroke:#0000ff;stroke-linejoin:miter;"/>
    </defs>
    <g clip-path="url(#p28676a02ba)">
     <use style="fill-opacity:0;stroke:#0000ff;stroke-linejoin:miter;" x="65.103807" xlink:href="#m74656a318f" y="120.811421"/>
     <use style="fill-opacity:0;stroke:#0000ff;stroke-linejoin:miter;" x="70.600226" xlink:href="#m74656a318f" y="178.929475"/>
     <use style="fill-opacity:0;stroke:#0000ff;stroke-linejoin:miter;" x="76.096644" xlink:href="#m74656a318f" y="183.616415"/>
     <use style="fill-opacity:0;stroke:#0000ff;stroke-linejoin:miter;" x="81.593063" xlink:href="#m74656a318f" y="190.178131"/>
     <use style="fill-opacity:0;stroke:#0000ff;stroke-linejoin:miter;" x="87.089482" xlink:href="#m74656a318f" y="192.990294"/>
     <use style="fill-opacity:0;stroke:#0000ff;stroke-linejoin:miter;" x="92.5859" xlink:href="#m74656a318f" y="196.739846"/>
     <use style="fill-opacity:0;stroke:#0000ff;stroke-linejoin:miter;" x="98.082319" xlink:href="#m74656a318f" y="199.55201"/>
     <use style="fill-opacity:0;stroke:#0000ff;stroke-linejoin:miter;" x="103.578738" xlink:href="#m74656a318f" y="203.301562"/>
     <use style="fill-opacity:0;stroke:#0000ff;stroke-linejoin:miter;" x="109.075157" xlink:href="#m74656a318f" y="209.863278"/>
     <use style="fill-opacity:0;stroke:#0000ff;stroke-linejoin:miter;" x="114.571575" xlink:href="#m74656a318f" y="213.61283"/>
     <use style="fill-opacity:0;stroke:#0000ff;stroke-linejoin:miter;" x="120.067994" xlink:href="#m74656a318f" y="217.362382"/>
     <use style="fill-opacity:0;stroke:#0000ff;stroke-linejoin:miter;" x="125.564413" xlink:href="#m74656a318f" y="220.174545"/>
     <use style="fill-opacity:0;stroke:#0000ff;stroke-linejoin:miter;" x="131.060832" xlink:href="#m74656a318f" y="224.861485"/>
     <use style="fill-opacity:0;stroke:#0000ff;stroke-linejoin:miter;" x="136.55725" xlink:href="#m74656a318f" y="229.548425"/>
     <use style="fill-opacity:0;stroke:#0000ff;stroke-linejoin:miter;" x="142.053669" xlink:href="#m74656a318f" y="234.235365"/>
     <use style="fill-opacity:0;stroke:#0000ff;stroke-linejoin:miter;" x="147.550088" xlink:href="#m74656a318f" y="238.922305"/>
     <use style="fill-opacity:0;stroke:#0000ff;stroke-linejoin:miter;" x="153.046507" xlink:href="#m74656a318f" y="240.797081"/>
     <use style="fill-opacity:0;stroke:#0000ff;stroke-linejoin:miter;" x="158.542925" xlink:href="#m74656a318f" y="246.421408"/>
     <use style="fill-opacity:0;stroke:#0000ff;stroke-linejoin:miter;" x="164.039344" xlink:href="#m74656a318f" y="250.17096"/>
     <use style="fill-opacity:0;stroke:#0000ff;stroke-linejoin:miter;" x="169.535763" xlink:href="#m74656a318f" y="255.795288"/>
     <use style="fill-opacity:0;stroke:#0000ff;stroke-linejoin:miter;" x="175.032181" xlink:href="#m74656a318f" y="260.482228"/>
     <use style="fill-opacity:0;stroke:#0000ff;stroke-linejoin:miter;" x="180.5286" xlink:href="#m74656a318f" y="262.357004"/>
     <use style="fill-opacity:0;stroke:#0000ff;stroke-linejoin:miter;" x="186.025019" xlink:href="#m74656a318f" y="267.043944"/>
     <use style="fill-opacity:0;stroke:#0000ff;stroke-linejoin:miter;" x="191.521438" xlink:href="#m74656a318f" y="270.793496"/>
     <use style="fill-opacity:0;stroke:#0000ff;stroke-linejoin:miter;" x="197.017856" xlink:href="#m74656a318f" y="275.480435"/>
     <use style="fill-opacity:0;stroke:#0000ff;stroke-linejoin:miter;" x="202.514275" xlink:href="#m74656a318f" y="280.167375"/>
     <use style="fill-opacity:0;stroke:#0000ff;stroke-linejoin:miter;" x="208.010694" xlink:href="#m74656a318f" y="283.916927"/>
     <use style="fill-opacity:0;stroke:#0000ff;stroke-linejoin:miter;" x="213.507113" xlink:href="#m74656a318f" y="286.729091"/>
     <use style="fill-opacity:0;stroke:#0000ff;stroke-linejoin:miter;" x="219.003531" xlink:href="#m74656a318f" y="79.566351"/>
     <use style="fill-opacity:0;stroke:#0000ff;stroke-linejoin:miter;" x="224.49995" xlink:href="#m74656a318f" y="159.244328"/>
     <use style="fill-opacity:0;stroke:#0000ff;stroke-linejoin:miter;" x="229.996369" xlink:href="#m74656a318f" y="177.054699"/>
     <use style="fill-opacity:0;stroke:#0000ff;stroke-linejoin:miter;" x="235.492788" xlink:href="#m74656a318f" y="185.491191"/>
     <use style="fill-opacity:0;stroke:#0000ff;stroke-linejoin:miter;" x="240.989206" xlink:href="#m74656a318f" y="190.178131"/>
     <use style="fill-opacity:0;stroke:#0000ff;stroke-linejoin:miter;" x="246.485625" xlink:href="#m74656a318f" y="197.677234"/>
     <use style="fill-opacity:0;stroke:#0000ff;stroke-linejoin:miter;" x="251.982044" xlink:href="#m74656a318f" y="202.364174"/>
     <use style="fill-opacity:0;stroke:#0000ff;stroke-linejoin:miter;" x="257.478462" xlink:href="#m74656a318f" y="207.988502"/>
     <use style="fill-opacity:0;stroke:#0000ff;stroke-linejoin:miter;" x="262.974881" xlink:href="#m74656a318f" y="214.550218"/>
     <use style="fill-opacity:0;stroke:#0000ff;stroke-linejoin:miter;" x="268.4713" xlink:href="#m74656a318f" y="218.29977"/>
     <use style="fill-opacity:0;stroke:#0000ff;stroke-linejoin:miter;" x="273.967719" xlink:href="#m74656a318f" y="225.798873"/>
     <use style="fill-opacity:0;stroke:#0000ff;stroke-linejoin:miter;" x="279.464137" xlink:href="#m74656a318f" y="230.485813"/>
     <use style="fill-opacity:0;stroke:#0000ff;stroke-linejoin:miter;" x="284.960556" xlink:href="#m74656a318f" y="236.110141"/>
     <use style="fill-opacity:0;stroke:#0000ff;stroke-linejoin:miter;" x="290.456975" xlink:href="#m74656a318f" y="240.797081"/>
     <use style="fill-opacity:0;stroke:#0000ff;stroke-linejoin:miter;" x="295.953394" xlink:href="#m74656a318f" y="99.251498"/>
     <use style="fill-opacity:0;stroke:#0000ff;stroke-linejoin:miter;" x="301.449812" xlink:href="#m74656a318f" y="168.618207"/>
     <use style="fill-opacity:0;stroke:#0000ff;stroke-linejoin:miter;" x="306.946231" xlink:href="#m74656a318f" y="186.428579"/>
     <use style="fill-opacity:0;stroke:#0000ff;stroke-linejoin:miter;" x="312.44265" xlink:href="#m74656a318f" y="191.115519"/>
     <use style="fill-opacity:0;stroke:#0000ff;stroke-linejoin:miter;" x="317.939069" xlink:href="#m74656a318f" y="198.614622"/>
     <use style="fill-opacity:0;stroke:#0000ff;stroke-linejoin:miter;" x="323.435487" xlink:href="#m74656a318f" y="204.23895"/>
     <use style="fill-opacity:0;stroke:#0000ff;stroke-linejoin:miter;" x="328.931906" xlink:href="#m74656a318f" y="209.863278"/>
     <use style="fill-opacity:0;stroke:#0000ff;stroke-linejoin:miter;" x="334.428325" xlink:href="#m74656a318f" y="213.61283"/>
     <use style="fill-opacity:0;stroke:#0000ff;stroke-linejoin:miter;" x="339.924743" xlink:href="#m74656a318f" y="221.111933"/>
     <use style="fill-opacity:0;stroke:#0000ff;stroke-linejoin:miter;" x="345.421162" xlink:href="#m74656a318f" y="91.752394"/>
     <use style="fill-opacity:0;stroke:#0000ff;stroke-linejoin:miter;" x="350.917581" xlink:href="#m74656a318f" y="177.992087"/>
     <use style="fill-opacity:0;stroke:#0000ff;stroke-linejoin:miter;" x="356.414" xlink:href="#m74656a318f" y="193.927682"/>
    </g>
   </g>
   <g id="line2d_15">
    <path clip-path="url(#p28676a02ba)" d="M 65.103807 120.811421 
L 70.600226 178.929475 
L 76.096644 183.616415 
L 81.593063 190.178131 
L 87.089482 192.990294 
L 92.5859 196.739846 
L 98.082319 199.55201 
L 103.578738 203.301562 
L 109.075157 209.863278 
L 114.571575 213.61283 
L 120.067994 217.362382 
L 125.564413 220.174545 
L 131.060832 224.861485 
L 136.55725 229.548425 
L 142.053669 234.235365 
L 147.550088 238.922305 
L 153.046507 240.797081 
L 158.542925 246.421408 
L 164.039344 250.17096 
L 169.535763 255.795288 
L 175.032181 260.482228 
L 180.5286 262.357004 
L 186.025019 267.043944 
L 191.521438 270.793496 
L 197.017856 275.480435 
L 202.514275 280.167375 
L 208.010694 283.916927 
L 213.507113 286.729091 
L 219.003531 79.566351 
L 224.49995 159.244328 
L 229.996369 177.054699 
L 235.492788 185.491191 
L 240.989206 190.178131 
L 246.485625 197.677234 
L 251.982044 202.364174 
L 257.478462 207.988502 
L 262.974881 214.550218 
L 268.4713 218.29977 
L 273.967719 225.798873 
L 279.464137 230.485813 
L 284.960556 236.110141 
L 290.456975 240.797081 
L 295.953394 99.251498 
L 301.449812 162.99388 
L 306.946231 181.741639 
L 312.44265 179.866863 
L 317.939069 190.178131 
L 323.435487 194.86507 
L 328.931906 201.426786 
L 334.428325 212.675442 
L 339.924743 221.111933 
L 345.421162 229.548425 
L 350.917581 98.31411 
L 356.414 163.931268 
L 361.910418 177.992087 
L 367.406837 192.990294 
L 372.903256 191.115519 
L 378.399675 198.614622 
L 383.896093 212.675442 
L 389.392512 207.051114 
L 394.888931 214.550218 
L 400.38535 227.673649 
L 405.881768 229.548425 
L 411.378187 233.297977 
L 416.874606 240.797081 
L 422.371024 244.546633 
L 427.867443 261.419616 
" style="fill:none;stroke:#ff0000;stroke-dasharray:5.55,2.4;stroke-dashoffset:0;stroke-width:1.5;"/>
    <defs>
     <path d="M -3 3 
L 3 -3 
M -3 -3 
L 3 3 
" id="mab616e7707" style="stroke:#ff0000;"/>
    </defs>
    <g clip-path="url(#p28676a02ba)">
     <use style="fill:#ff0000;stroke:#ff0000;" x="65.103807" xlink:href="#mab616e7707" y="120.811421"/>
     <use style="fill:#ff0000;stroke:#ff0000;" x="70.600226" xlink:href="#mab616e7707" y="178.929475"/>
     <use style="fill:#ff0000;stroke:#ff0000;" x="76.096644" xlink:href="#mab616e7707" y="183.616415"/>
     <use style="fill:#ff0000;stroke:#ff0000;" x="81.593063" xlink:href="#mab616e7707" y="190.178131"/>
     <use style="fill:#ff0000;stroke:#ff0000;" x="87.089482" xlink:href="#mab616e7707" y="192.990294"/>
     <use style="fill:#ff0000;stroke:#ff0000;" x="92.5859" xlink:href="#mab616e7707" y="196.739846"/>
     <use style="fill:#ff0000;stroke:#ff0000;" x="98.082319" xlink:href="#mab616e7707" y="199.55201"/>
     <use style="fill:#ff0000;stroke:#ff0000;" x="103.578738" xlink:href="#mab616e7707" y="203.301562"/>
     <use style="fill:#ff0000;stroke:#ff0000;" x="109.075157" xlink:href="#mab616e7707" y="209.863278"/>
     <use style="fill:#ff0000;stroke:#ff0000;" x="114.571575" xlink:href="#mab616e7707" y="213.61283"/>
     <use style="fill:#ff0000;stroke:#ff0000;" x="120.067994" xlink:href="#mab616e7707" y="217.362382"/>
     <use style="fill:#ff0000;stroke:#ff0000;" x="125.564413" xlink:href="#mab616e7707" y="220.174545"/>
     <use style="fill:#ff0000;stroke:#ff0000;" x="131.060832" xlink:href="#mab616e7707" y="224.861485"/>
     <use style="fill:#ff0000;stroke:#ff0000;" x="136.55725" xlink:href="#mab616e7707" y="229.548425"/>
     <use style="fill:#ff0000;stroke:#ff0000;" x="142.053669" xlink:href="#mab616e7707" y="234.235365"/>
     <use style="fill:#ff0000;stroke:#ff0000;" x="147.550088" xlink:href="#mab616e7707" y="238.922305"/>
     <use style="fill:#ff0000;stroke:#ff0000;" x="153.046507" xlink:href="#mab616e7707" y="240.797081"/>
     <use style="fill:#ff0000;stroke:#ff0000;" x="158.542925" xlink:href="#mab616e7707" y="246.421408"/>
     <use style="fill:#ff0000;stroke:#ff0000;" x="164.039344" xlink:href="#mab616e7707" y="250.17096"/>
     <use style="fill:#ff0000;stroke:#ff0000;" x="169.535763" xlink:href="#mab616e7707" y="255.795288"/>
     <use style="fill:#ff0000;stroke:#ff0000;" x="175.032181" xlink:href="#mab616e7707" y="260.482228"/>
     <use style="fill:#ff0000;stroke:#ff0000;" x="180.5286" xlink:href="#mab616e7707" y="262.357004"/>
     <use style="fill:#ff0000;stroke:#ff0000;" x="186.025019" xlink:href="#mab616e7707" y="267.043944"/>
     <use style="fill:#ff0000;stroke:#ff0000;" x="191.521438" xlink:href="#mab616e7707" y="270.793496"/>
     <use style="fill:#ff0000;stroke:#ff0000;" x="197.017856" xlink:href="#mab616e7707" y="275.480435"/>
     <use style="fill:#ff0000;stroke:#ff0000;" x="202.514275" xlink:href="#mab616e7707" y="280.167375"/>
     <use style="fill:#ff0000;stroke:#ff0000;" x="208.010694" xlink:href="#mab616e7707" y="283.916927"/>
     <use style="fill:#ff0000;stroke:#ff0000;" x="213.507113" xlink:href="#mab616e7707" y="286.729091"/>
     <use style="fill:#ff0000;stroke:#ff0000;" x="219.003531" xlink:href="#mab616e7707" y="79.566351"/>
     <use style="fill:#ff0000;stroke:#ff0000;" x="224.49995" xlink:href="#mab616e7707" y="159.244328"/>
     <use style="fill:#ff0000;stroke:#ff0000;" x="229.996369" xlink:href="#mab616e7707" y="177.054699"/>
     <use style="fill:#ff0000;stroke:#ff0000;" x="235.492788" xlink:href="#mab616e7707" y="185.491191"/>
     <use style="fill:#ff0000;stroke:#ff0000;" x="240.989206" xlink:href="#mab616e7707" y="190.178131"/>
     <use style="fill:#ff0000;stroke:#ff0000;" x="246.485625" xlink:href="#mab616e7707" y="197.677234"/>
     <use style="fill:#ff0000;stroke:#ff0000;" x="251.982044" xlink:href="#mab616e7707" y="202.364174"/>
     <use style="fill:#ff0000;stroke:#ff0000;" x="257.478462" xlink:href="#mab616e7707" y="207.988502"/>
     <use style="fill:#ff0000;stroke:#ff0000;" x="262.974881" xlink:href="#mab616e7707" y="214.550218"/>
     <use style="fill:#ff0000;stroke:#ff0000;" x="268.4713" xlink:href="#mab616e7707" y="218.29977"/>
     <use style="fill:#ff0000;stroke:#ff0000;" x="273.967719" xlink:href="#mab616e7707" y="225.798873"/>
     <use style="fill:#ff0000;stroke:#ff0000;" x="279.464137" xlink:href="#mab616e7707" y="230.485813"/>
     <use style="fill:#ff0000;stroke:#ff0000;" x="284.960556" xlink:href="#mab616e7707" y="236.110141"/>
     <use style="fill:#ff0000;stroke:#ff0000;" x="290.456975" xlink:href="#mab616e7707" y="240.797081"/>
     <use style="fill:#ff0000;stroke:#ff0000;" x="295.953394" xlink:href="#mab616e7707" y="99.251498"/>
     <use style="fill:#ff0000;stroke:#ff0000;" x="301.449812" xlink:href="#mab616e7707" y="162.99388"/>
     <use style="fill:#ff0000;stroke:#ff0000;" x="306.946231" xlink:href="#mab616e7707" y="181.741639"/>
     <use style="fill:#ff0000;stroke:#ff0000;" x="312.44265" xlink:href="#mab616e7707" y="179.866863"/>
     <use style="fill:#ff0000;stroke:#ff0000;" x="317.939069" xlink:href="#mab616e7707" y="190.178131"/>
     <use style="fill:#ff0000;stroke:#ff0000;" x="323.435487" xlink:href="#mab616e7707" y="194.86507"/>
     <use style="fill:#ff0000;stroke:#ff0000;" x="328.931906" xlink:href="#mab616e7707" y="201.426786"/>
     <use style="fill:#ff0000;stroke:#ff0000;" x="334.428325" xlink:href="#mab616e7707" y="212.675442"/>
     <use style="fill:#ff0000;stroke:#ff0000;" x="339.924743" xlink:href="#mab616e7707" y="221.111933"/>
     <use style="fill:#ff0000;stroke:#ff0000;" x="345.421162" xlink:href="#mab616e7707" y="229.548425"/>
     <use style="fill:#ff0000;stroke:#ff0000;" x="350.917581" xlink:href="#mab616e7707" y="98.31411"/>
     <use style="fill:#ff0000;stroke:#ff0000;" x="356.414" xlink:href="#mab616e7707" y="163.931268"/>
     <use style="fill:#ff0000;stroke:#ff0000;" x="361.910418" xlink:href="#mab616e7707" y="177.992087"/>
     <use style="fill:#ff0000;stroke:#ff0000;" x="367.406837" xlink:href="#mab616e7707" y="192.990294"/>
     <use style="fill:#ff0000;stroke:#ff0000;" x="372.903256" xlink:href="#mab616e7707" y="191.115519"/>
     <use style="fill:#ff0000;stroke:#ff0000;" x="378.399675" xlink:href="#mab616e7707" y="198.614622"/>
     <use style="fill:#ff0000;stroke:#ff0000;" x="383.896093" xlink:href="#mab616e7707" y="212.675442"/>
     <use style="fill:#ff0000;stroke:#ff0000;" x="389.392512" xlink:href="#mab616e7707" y="207.051114"/>
     <use style="fill:#ff0000;stroke:#ff0000;" x="394.888931" xlink:href="#mab616e7707" y="214.550218"/>
     <use style="fill:#ff0000;stroke:#ff0000;" x="400.38535" xlink:href="#mab616e7707" y="227.673649"/>
     <use style="fill:#ff0000;stroke:#ff0000;" x="405.881768" xlink:href="#mab616e7707" y="229.548425"/>
     <use style="fill:#ff0000;stroke:#ff0000;" x="411.378187" xlink:href="#mab616e7707" y="233.297977"/>
     <use style="fill:#ff0000;stroke:#ff0000;" x="416.874606" xlink:href="#mab616e7707" y="240.797081"/>
     <use style="fill:#ff0000;stroke:#ff0000;" x="422.371024" xlink:href="#mab616e7707" y="244.546633"/>
     <use style="fill:#ff0000;stroke:#ff0000;" x="427.867443" xlink:href="#mab616e7707" y="261.419616"/>
    </g>
   </g>
   <g id="line2d_16">
    <path clip-path="url(#p28676a02ba)" d="M 65.103807 120.811421 
L 70.600226 178.929475 
L 76.096644 183.616415 
L 81.593063 190.178131 
L 87.089482 192.990294 
L 92.5859 196.739846 
L 98.082319 199.55201 
L 103.578738 203.301562 
L 109.075157 209.863278 
L 114.571575 213.61283 
L 120.067994 217.362382 
L 125.564413 220.174545 
L 131.060832 224.861485 
L 136.55725 229.548425 
L 142.053669 234.235365 
L 147.550088 238.922305 
L 153.046507 240.797081 
L 158.542925 246.421408 
L 164.039344 250.17096 
L 169.535763 255.795288 
L 175.032181 260.482228 
L 180.5286 262.357004 
L 186.025019 267.043944 
L 191.521438 270.793496 
L 197.017856 275.480435 
L 202.514275 280.167375 
L 208.010694 283.916927 
L 213.507113 286.729091 
L 219.003531 80.503739 
L 224.49995 158.30694 
L 229.996369 176.117311 
L 235.492788 183.616415 
L 240.989206 189.240743 
L 246.485625 194.86507 
L 251.982044 201.426786 
L 257.478462 206.113726 
L 262.974881 212.675442 
L 268.4713 217.362382 
L 273.967719 224.861485 
L 279.464137 229.548425 
L 284.960556 234.235365 
L 290.456975 240.797081 
L 295.953394 81.441127 
L 301.449812 158.30694 
L 306.946231 177.054699 
L 312.44265 185.491191 
L 317.939069 192.052907 
L 323.435487 195.802458 
L 328.931906 201.426786 
L 334.428325 207.988502 
L 339.924743 213.61283 
L 345.421162 89.877618 
L 350.917581 174.242535 
L 356.414 190.178131 
L 361.910418 194.86507 
L 367.406837 203.301562 
L 372.903256 208.92589 
L 378.399675 213.61283 
" style="fill:none;stroke:#1f77b4;stroke-linecap:square;stroke-width:1.5;"/>
    <defs>
     <path d="M 0 3 
C 0.795609 3 1.55874 2.683901 2.12132 2.12132 
C 2.683901 1.55874 3 0.795609 3 0 
C 3 -0.795609 2.683901 -1.55874 2.12132 -2.12132 
C 1.55874 -2.683901 0.795609 -3 0 -3 
C -0.795609 -3 -1.55874 -2.683901 -2.12132 -2.12132 
C -2.683901 -1.55874 -3 -0.795609 -3 0 
C -3 0.795609 -2.683901 1.55874 -2.12132 2.12132 
C -1.55874 2.683901 -0.795609 3 0 3 
z
" id="ma98d9db8e3" style="stroke:#1f77b4;"/>
    </defs>
    <g clip-path="url(#p28676a02ba)">
     <use style="fill-opacity:0;stroke:#1f77b4;" x="65.103807" xlink:href="#ma98d9db8e3" y="120.811421"/>
     <use style="fill-opacity:0;stroke:#1f77b4;" x="70.600226" xlink:href="#ma98d9db8e3" y="178.929475"/>
     <use style="fill-opacity:0;stroke:#1f77b4;" x="76.096644" xlink:href="#ma98d9db8e3" y="183.616415"/>
     <use style="fill-opacity:0;stroke:#1f77b4;" x="81.593063" xlink:href="#ma98d9db8e3" y="190.178131"/>
     <use style="fill-opacity:0;stroke:#1f77b4;" x="87.089482" xlink:href="#ma98d9db8e3" y="192.990294"/>
     <use style="fill-opacity:0;stroke:#1f77b4;" x="92.5859" xlink:href="#ma98d9db8e3" y="196.739846"/>
     <use style="fill-opacity:0;stroke:#1f77b4;" x="98.082319" xlink:href="#ma98d9db8e3" y="199.55201"/>
     <use style="fill-opacity:0;stroke:#1f77b4;" x="103.578738" xlink:href="#ma98d9db8e3" y="203.301562"/>
     <use style="fill-opacity:0;stroke:#1f77b4;" x="109.075157" xlink:href="#ma98d9db8e3" y="209.863278"/>
     <use style="fill-opacity:0;stroke:#1f77b4;" x="114.571575" xlink:href="#ma98d9db8e3" y="213.61283"/>
     <use style="fill-opacity:0;stroke:#1f77b4;" x="120.067994" xlink:href="#ma98d9db8e3" y="217.362382"/>
     <use style="fill-opacity:0;stroke:#1f77b4;" x="125.564413" xlink:href="#ma98d9db8e3" y="220.174545"/>
     <use style="fill-opacity:0;stroke:#1f77b4;" x="131.060832" xlink:href="#ma98d9db8e3" y="224.861485"/>
     <use style="fill-opacity:0;stroke:#1f77b4;" x="136.55725" xlink:href="#ma98d9db8e3" y="229.548425"/>
     <use style="fill-opacity:0;stroke:#1f77b4;" x="142.053669" xlink:href="#ma98d9db8e3" y="234.235365"/>
     <use style="fill-opacity:0;stroke:#1f77b4;" x="147.550088" xlink:href="#ma98d9db8e3" y="238.922305"/>
     <use style="fill-opacity:0;stroke:#1f77b4;" x="153.046507" xlink:href="#ma98d9db8e3" y="240.797081"/>
     <use style="fill-opacity:0;stroke:#1f77b4;" x="158.542925" xlink:href="#ma98d9db8e3" y="246.421408"/>
     <use style="fill-opacity:0;stroke:#1f77b4;" x="164.039344" xlink:href="#ma98d9db8e3" y="250.17096"/>
     <use style="fill-opacity:0;stroke:#1f77b4;" x="169.535763" xlink:href="#ma98d9db8e3" y="255.795288"/>
     <use style="fill-opacity:0;stroke:#1f77b4;" x="175.032181" xlink:href="#ma98d9db8e3" y="260.482228"/>
     <use style="fill-opacity:0;stroke:#1f77b4;" x="180.5286" xlink:href="#ma98d9db8e3" y="262.357004"/>
     <use style="fill-opacity:0;stroke:#1f77b4;" x="186.025019" xlink:href="#ma98d9db8e3" y="267.043944"/>
     <use style="fill-opacity:0;stroke:#1f77b4;" x="191.521438" xlink:href="#ma98d9db8e3" y="270.793496"/>
     <use style="fill-opacity:0;stroke:#1f77b4;" x="197.017856" xlink:href="#ma98d9db8e3" y="275.480435"/>
     <use style="fill-opacity:0;stroke:#1f77b4;" x="202.514275" xlink:href="#ma98d9db8e3" y="280.167375"/>
     <use style="fill-opacity:0;stroke:#1f77b4;" x="208.010694" xlink:href="#ma98d9db8e3" y="283.916927"/>
     <use style="fill-opacity:0;stroke:#1f77b4;" x="213.507113" xlink:href="#ma98d9db8e3" y="286.729091"/>
     <use style="fill-opacity:0;stroke:#1f77b4;" x="219.003531" xlink:href="#ma98d9db8e3" y="80.503739"/>
     <use style="fill-opacity:0;stroke:#1f77b4;" x="224.49995" xlink:href="#ma98d9db8e3" y="158.30694"/>
     <use style="fill-opacity:0;stroke:#1f77b4;" x="229.996369" xlink:href="#ma98d9db8e3" y="176.117311"/>
     <use style="fill-opacity:0;stroke:#1f77b4;" x="235.492788" xlink:href="#ma98d9db8e3" y="183.616415"/>
     <use style="fill-opacity:0;stroke:#1f77b4;" x="240.989206" xlink:href="#ma98d9db8e3" y="189.240743"/>
     <use style="fill-opacity:0;stroke:#1f77b4;" x="246.485625" xlink:href="#ma98d9db8e3" y="194.86507"/>
     <use style="fill-opacity:0;stroke:#1f77b4;" x="251.982044" xlink:href="#ma98d9db8e3" y="201.426786"/>
     <use style="fill-opacity:0;stroke:#1f77b4;" x="257.478462" xlink:href="#ma98d9db8e3" y="206.113726"/>
     <use style="fill-opacity:0;stroke:#1f77b4;" x="262.974881" xlink:href="#ma98d9db8e3" y="212.675442"/>
     <use style="fill-opacity:0;stroke:#1f77b4;" x="268.4713" xlink:href="#ma98d9db8e3" y="217.362382"/>
     <use style="fill-opacity:0;stroke:#1f77b4;" x="273.967719" xlink:href="#ma98d9db8e3" y="224.861485"/>
     <use style="fill-opacity:0;stroke:#1f77b4;" x="279.464137" xlink:href="#ma98d9db8e3" y="229.548425"/>
     <use style="fill-opacity:0;stroke:#1f77b4;" x="284.960556" xlink:href="#ma98d9db8e3" y="234.235365"/>
     <use style="fill-opacity:0;stroke:#1f77b4;" x="290.456975" xlink:href="#ma98d9db8e3" y="240.797081"/>
     <use style="fill-opacity:0;stroke:#1f77b4;" x="295.953394" xlink:href="#ma98d9db8e3" y="81.441127"/>
     <use style="fill-opacity:0;stroke:#1f77b4;" x="301.449812" xlink:href="#ma98d9db8e3" y="158.30694"/>
     <use style="fill-opacity:0;stroke:#1f77b4;" x="306.946231" xlink:href="#ma98d9db8e3" y="177.054699"/>
     <use style="fill-opacity:0;stroke:#1f77b4;" x="312.44265" xlink:href="#ma98d9db8e3" y="185.491191"/>
     <use style="fill-opacity:0;stroke:#1f77b4;" x="317.939069" xlink:href="#ma98d9db8e3" y="192.052907"/>
     <use style="fill-opacity:0;stroke:#1f77b4;" x="323.435487" xlink:href="#ma98d9db8e3" y="195.802458"/>
     <use style="fill-opacity:0;stroke:#1f77b4;" x="328.931906" xlink:href="#ma98d9db8e3" y="201.426786"/>
     <use style="fill-opacity:0;stroke:#1f77b4;" x="334.428325" xlink:href="#ma98d9db8e3" y="207.988502"/>
     <use style="fill-opacity:0;stroke:#1f77b4;" x="339.924743" xlink:href="#ma98d9db8e3" y="213.61283"/>
     <use style="fill-opacity:0;stroke:#1f77b4;" x="345.421162" xlink:href="#ma98d9db8e3" y="89.877618"/>
     <use style="fill-opacity:0;stroke:#1f77b4;" x="350.917581" xlink:href="#ma98d9db8e3" y="174.242535"/>
     <use style="fill-opacity:0;stroke:#1f77b4;" x="356.414" xlink:href="#ma98d9db8e3" y="190.178131"/>
     <use style="fill-opacity:0;stroke:#1f77b4;" x="361.910418" xlink:href="#ma98d9db8e3" y="194.86507"/>
     <use style="fill-opacity:0;stroke:#1f77b4;" x="367.406837" xlink:href="#ma98d9db8e3" y="203.301562"/>
     <use style="fill-opacity:0;stroke:#1f77b4;" x="372.903256" xlink:href="#ma98d9db8e3" y="208.92589"/>
     <use style="fill-opacity:0;stroke:#1f77b4;" x="378.399675" xlink:href="#ma98d9db8e3" y="213.61283"/>
    </g>
   </g>
   <g id="line2d_17">
    <path clip-path="url(#p28676a02ba)" d="M 65.103807 120.811421 
L 70.600226 178.929475 
L 76.096644 183.616415 
L 81.593063 190.178131 
L 87.089482 192.990294 
L 92.5859 196.739846 
L 98.082319 199.55201 
L 103.578738 203.301562 
L 109.075157 209.863278 
L 114.571575 213.61283 
L 120.067994 217.362382 
L 125.564413 220.174545 
L 131.060832 224.861485 
L 136.55725 229.548425 
L 142.053669 234.235365 
L 147.550088 238.922305 
L 153.046507 240.797081 
L 158.542925 246.421408 
L 164.039344 250.17096 
L 169.535763 255.795288 
L 175.032181 260.482228 
L 180.5286 262.357004 
L 186.025019 267.043944 
L 191.521438 270.793496 
L 197.017856 275.480435 
L 202.514275 280.167375 
L 208.010694 283.916927 
L 213.507113 286.729091 
L 219.003531 80.503739 
L 224.49995 158.30694 
L 229.996369 176.117311 
L 235.492788 183.616415 
L 240.989206 189.240743 
L 246.485625 194.86507 
L 251.982044 201.426786 
L 257.478462 206.113726 
L 262.974881 212.675442 
L 268.4713 217.362382 
L 273.967719 224.861485 
L 279.464137 229.548425 
L 284.960556 234.235365 
L 290.456975 240.797081 
L 295.953394 71.129859 
L 301.449812 165.806044 
L 306.946231 179.866863 
L 312.44265 190.178131 
L 317.939069 196.739846 
L 323.435487 194.86507 
L 328.931906 207.051114 
L 334.428325 219.237157 
L 339.924743 220.174545 
L 345.421162 88.002843 
L 350.917581 177.992087 
L 356.414 186.428579 
L 361.910418 192.052907 
L 367.406837 200.489398 
L 372.903256 202.364174 
L 378.399675 210.800666 
" style="fill:none;stroke:#ff7f0e;stroke-dasharray:5.55,2.4;stroke-dashoffset:0;stroke-width:1.5;"/>
    <defs>
     <path d="M -1 3 
L 1 3 
L 1 1 
L 3 1 
L 3 -1 
L 1 -1 
L 1 -3 
L -1 -3 
L -1 -1 
L -3 -1 
L -3 1 
L -1 1 
z
" id="m0640264b78" style="stroke:#ff7f0e;stroke-linejoin:miter;"/>
    </defs>
    <g clip-path="url(#p28676a02ba)">
     <use style="fill:#ff7f0e;stroke:#ff7f0e;stroke-linejoin:miter;" x="65.103807" xlink:href="#m0640264b78" y="120.811421"/>
     <use style="fill:#ff7f0e;stroke:#ff7f0e;stroke-linejoin:miter;" x="70.600226" xlink:href="#m0640264b78" y="178.929475"/>
     <use style="fill:#ff7f0e;stroke:#ff7f0e;stroke-linejoin:miter;" x="76.096644" xlink:href="#m0640264b78" y="183.616415"/>
     <use style="fill:#ff7f0e;stroke:#ff7f0e;stroke-linejoin:miter;" x="81.593063" xlink:href="#m0640264b78" y="190.178131"/>
     <use style="fill:#ff7f0e;stroke:#ff7f0e;stroke-linejoin:miter;" x="87.089482" xlink:href="#m0640264b78" y="192.990294"/>
     <use style="fill:#ff7f0e;stroke:#ff7f0e;stroke-linejoin:miter;" x="92.5859" xlink:href="#m0640264b78" y="196.739846"/>
     <use style="fill:#ff7f0e;stroke:#ff7f0e;stroke-linejoin:miter;" x="98.082319" xlink:href="#m0640264b78" y="199.55201"/>
     <use style="fill:#ff7f0e;stroke:#ff7f0e;stroke-linejoin:miter;" x="103.578738" xlink:href="#m0640264b78" y="203.301562"/>
     <use style="fill:#ff7f0e;stroke:#ff7f0e;stroke-linejoin:miter;" x="109.075157" xlink:href="#m0640264b78" y="209.863278"/>
     <use style="fill:#ff7f0e;stroke:#ff7f0e;stroke-linejoin:miter;" x="114.571575" xlink:href="#m0640264b78" y="213.61283"/>
     <use style="fill:#ff7f0e;stroke:#ff7f0e;stroke-linejoin:miter;" x="120.067994" xlink:href="#m0640264b78" y="217.362382"/>
     <use style="fill:#ff7f0e;stroke:#ff7f0e;stroke-linejoin:miter;" x="125.564413" xlink:href="#m0640264b78" y="220.174545"/>
     <use style="fill:#ff7f0e;stroke:#ff7f0e;stroke-linejoin:miter;" x="131.060832" xlink:href="#m0640264b78" y="224.861485"/>
     <use style="fill:#ff7f0e;stroke:#ff7f0e;stroke-linejoin:miter;" x="136.55725" xlink:href="#m0640264b78" y="229.548425"/>
     <use style="fill:#ff7f0e;stroke:#ff7f0e;stroke-linejoin:miter;" x="142.053669" xlink:href="#m0640264b78" y="234.235365"/>
     <use style="fill:#ff7f0e;stroke:#ff7f0e;stroke-linejoin:miter;" x="147.550088" xlink:href="#m0640264b78" y="238.922305"/>
     <use style="fill:#ff7f0e;stroke:#ff7f0e;stroke-linejoin:miter;" x="153.046507" xlink:href="#m0640264b78" y="240.797081"/>
     <use style="fill:#ff7f0e;stroke:#ff7f0e;stroke-linejoin:miter;" x="158.542925" xlink:href="#m0640264b78" y="246.421408"/>
     <use style="fill:#ff7f0e;stroke:#ff7f0e;stroke-linejoin:miter;" x="164.039344" xlink:href="#m0640264b78" y="250.17096"/>
     <use style="fill:#ff7f0e;stroke:#ff7f0e;stroke-linejoin:miter;" x="169.535763" xlink:href="#m0640264b78" y="255.795288"/>
     <use style="fill:#ff7f0e;stroke:#ff7f0e;stroke-linejoin:miter;" x="175.032181" xlink:href="#m0640264b78" y="260.482228"/>
     <use style="fill:#ff7f0e;stroke:#ff7f0e;stroke-linejoin:miter;" x="180.5286" xlink:href="#m0640264b78" y="262.357004"/>
     <use style="fill:#ff7f0e;stroke:#ff7f0e;stroke-linejoin:miter;" x="186.025019" xlink:href="#m0640264b78" y="267.043944"/>
     <use style="fill:#ff7f0e;stroke:#ff7f0e;stroke-linejoin:miter;" x="191.521438" xlink:href="#m0640264b78" y="270.793496"/>
     <use style="fill:#ff7f0e;stroke:#ff7f0e;stroke-linejoin:miter;" x="197.017856" xlink:href="#m0640264b78" y="275.480435"/>
     <use style="fill:#ff7f0e;stroke:#ff7f0e;stroke-linejoin:miter;" x="202.514275" xlink:href="#m0640264b78" y="280.167375"/>
     <use style="fill:#ff7f0e;stroke:#ff7f0e;stroke-linejoin:miter;" x="208.010694" xlink:href="#m0640264b78" y="283.916927"/>
     <use style="fill:#ff7f0e;stroke:#ff7f0e;stroke-linejoin:miter;" x="213.507113" xlink:href="#m0640264b78" y="286.729091"/>
     <use style="fill:#ff7f0e;stroke:#ff7f0e;stroke-linejoin:miter;" x="219.003531" xlink:href="#m0640264b78" y="80.503739"/>
     <use style="fill:#ff7f0e;stroke:#ff7f0e;stroke-linejoin:miter;" x="224.49995" xlink:href="#m0640264b78" y="158.30694"/>
     <use style="fill:#ff7f0e;stroke:#ff7f0e;stroke-linejoin:miter;" x="229.996369" xlink:href="#m0640264b78" y="176.117311"/>
     <use style="fill:#ff7f0e;stroke:#ff7f0e;stroke-linejoin:miter;" x="235.492788" xlink:href="#m0640264b78" y="183.616415"/>
     <use style="fill:#ff7f0e;stroke:#ff7f0e;stroke-linejoin:miter;" x="240.989206" xlink:href="#m0640264b78" y="189.240743"/>
     <use style="fill:#ff7f0e;stroke:#ff7f0e;stroke-linejoin:miter;" x="246.485625" xlink:href="#m0640264b78" y="194.86507"/>
     <use style="fill:#ff7f0e;stroke:#ff7f0e;stroke-linejoin:miter;" x="251.982044" xlink:href="#m0640264b78" y="201.426786"/>
     <use style="fill:#ff7f0e;stroke:#ff7f0e;stroke-linejoin:miter;" x="257.478462" xlink:href="#m0640264b78" y="206.113726"/>
     <use style="fill:#ff7f0e;stroke:#ff7f0e;stroke-linejoin:miter;" x="262.974881" xlink:href="#m0640264b78" y="212.675442"/>
     <use style="fill:#ff7f0e;stroke:#ff7f0e;stroke-linejoin:miter;" x="268.4713" xlink:href="#m0640264b78" y="217.362382"/>
     <use style="fill:#ff7f0e;stroke:#ff7f0e;stroke-linejoin:miter;" x="273.967719" xlink:href="#m0640264b78" y="224.861485"/>
     <use style="fill:#ff7f0e;stroke:#ff7f0e;stroke-linejoin:miter;" x="279.464137" xlink:href="#m0640264b78" y="229.548425"/>
     <use style="fill:#ff7f0e;stroke:#ff7f0e;stroke-linejoin:miter;" x="284.960556" xlink:href="#m0640264b78" y="234.235365"/>
     <use style="fill:#ff7f0e;stroke:#ff7f0e;stroke-linejoin:miter;" x="290.456975" xlink:href="#m0640264b78" y="240.797081"/>
     <use style="fill:#ff7f0e;stroke:#ff7f0e;stroke-linejoin:miter;" x="295.953394" xlink:href="#m0640264b78" y="71.129859"/>
     <use style="fill:#ff7f0e;stroke:#ff7f0e;stroke-linejoin:miter;" x="301.449812" xlink:href="#m0640264b78" y="165.806044"/>
     <use style="fill:#ff7f0e;stroke:#ff7f0e;stroke-linejoin:miter;" x="306.946231" xlink:href="#m0640264b78" y="179.866863"/>
     <use style="fill:#ff7f0e;stroke:#ff7f0e;stroke-linejoin:miter;" x="312.44265" xlink:href="#m0640264b78" y="190.178131"/>
     <use style="fill:#ff7f0e;stroke:#ff7f0e;stroke-linejoin:miter;" x="317.939069" xlink:href="#m0640264b78" y="196.739846"/>
     <use style="fill:#ff7f0e;stroke:#ff7f0e;stroke-linejoin:miter;" x="323.435487" xlink:href="#m0640264b78" y="194.86507"/>
     <use style="fill:#ff7f0e;stroke:#ff7f0e;stroke-linejoin:miter;" x="328.931906" xlink:href="#m0640264b78" y="207.051114"/>
     <use style="fill:#ff7f0e;stroke:#ff7f0e;stroke-linejoin:miter;" x="334.428325" xlink:href="#m0640264b78" y="219.237157"/>
     <use style="fill:#ff7f0e;stroke:#ff7f0e;stroke-linejoin:miter;" x="339.924743" xlink:href="#m0640264b78" y="220.174545"/>
     <use style="fill:#ff7f0e;stroke:#ff7f0e;stroke-linejoin:miter;" x="345.421162" xlink:href="#m0640264b78" y="88.002843"/>
     <use style="fill:#ff7f0e;stroke:#ff7f0e;stroke-linejoin:miter;" x="350.917581" xlink:href="#m0640264b78" y="177.992087"/>
     <use style="fill:#ff7f0e;stroke:#ff7f0e;stroke-linejoin:miter;" x="356.414" xlink:href="#m0640264b78" y="186.428579"/>
     <use style="fill:#ff7f0e;stroke:#ff7f0e;stroke-linejoin:miter;" x="361.910418" xlink:href="#m0640264b78" y="192.052907"/>
     <use style="fill:#ff7f0e;stroke:#ff7f0e;stroke-linejoin:miter;" x="367.406837" xlink:href="#m0640264b78" y="200.489398"/>
     <use style="fill:#ff7f0e;stroke:#ff7f0e;stroke-linejoin:miter;" x="372.903256" xlink:href="#m0640264b78" y="202.364174"/>
     <use style="fill:#ff7f0e;stroke:#ff7f0e;stroke-linejoin:miter;" x="378.399675" xlink:href="#m0640264b78" y="210.800666"/>
    </g>
   </g>
   <g id="line2d_18">
    <path clip-path="url(#p28676a02ba)" d="M 65.103807 120.811421 
L 70.600226 178.929475 
L 76.096644 183.616415 
L 81.593063 190.178131 
L 87.089482 192.990294 
L 92.5859 196.739846 
L 98.082319 199.55201 
L 103.578738 203.301562 
L 109.075157 209.863278 
L 114.571575 213.61283 
L 120.067994 217.362382 
L 125.564413 220.174545 
L 131.060832 224.861485 
L 136.55725 229.548425 
L 142.053669 234.235365 
L 147.550088 238.922305 
L 153.046507 240.797081 
L 158.542925 246.421408 
L 164.039344 250.17096 
L 169.535763 255.795288 
L 175.032181 260.482228 
L 180.5286 262.357004 
L 186.025019 267.043944 
L 191.521438 270.793496 
L 197.017856 275.480435 
L 202.514275 280.167375 
L 208.010694 283.916927 
L 213.507113 286.729091 
L 219.003531 83.315903 
L 224.49995 162.99388 
L 229.996369 179.866863 
L 235.492788 188.303355 
L 240.989206 192.990294 
L 246.485625 199.55201 
L 251.982044 205.176338 
L 257.478462 209.863278 
L 262.974881 215.487606 
L 268.4713 221.111933 
L 273.967719 229.548425 
L 279.464137 233.297977 
L 284.960556 237.984917 
L 290.456975 245.48402 
L 295.953394 47.69516 
L 301.449812 135.809629 
L 306.946231 156.432164 
L 312.44265 20.510909 
L 317.939069 117.061869 
L 323.435487 129.247913 
L 328.931906 137.684405 
L 334.428325 146.120896 
L 339.924743 155.494776 
L 345.421162 162.056492 
L 350.917581 170.492983 
L 356.414 177.992087 
" style="fill:none;stroke:#2ca02c;stroke-linecap:square;stroke-width:1.5;"/>
    <defs>
     <path d="M -0 4.242641 
L 4.242641 0 
L 0 -4.242641 
L -4.242641 -0 
z
" id="m2e40f12b73" style="stroke:#2ca02c;stroke-linejoin:miter;"/>
    </defs>
    <g clip-path="url(#p28676a02ba)">
     <use style="fill-opacity:0;stroke:#2ca02c;stroke-linejoin:miter;" x="65.103807" xlink:href="#m2e40f12b73" y="120.811421"/>
     <use style="fill-opacity:0;stroke:#2ca02c;stroke-linejoin:miter;" x="70.600226" xlink:href="#m2e40f12b73" y="178.929475"/>
     <use style="fill-opacity:0;stroke:#2ca02c;stroke-linejoin:miter;" x="76.096644" xlink:href="#m2e40f12b73" y="183.616415"/>
     <use style="fill-opacity:0;stroke:#2ca02c;stroke-linejoin:miter;" x="81.593063" xlink:href="#m2e40f12b73" y="190.178131"/>
     <use style="fill-opacity:0;stroke:#2ca02c;stroke-linejoin:miter;" x="87.089482" xlink:href="#m2e40f12b73" y="192.990294"/>
     <use style="fill-opacity:0;stroke:#2ca02c;stroke-linejoin:miter;" x="92.5859" xlink:href="#m2e40f12b73" y="196.739846"/>
     <use style="fill-opacity:0;stroke:#2ca02c;stroke-linejoin:miter;" x="98.082319" xlink:href="#m2e40f12b73" y="199.55201"/>
     <use style="fill-opacity:0;stroke:#2ca02c;stroke-linejoin:miter;" x="103.578738" xlink:href="#m2e40f12b73" y="203.301562"/>
     <use style="fill-opacity:0;stroke:#2ca02c;stroke-linejoin:miter;" x="109.075157" xlink:href="#m2e40f12b73" y="209.863278"/>
     <use style="fill-opacity:0;stroke:#2ca02c;stroke-linejoin:miter;" x="114.571575" xlink:href="#m2e40f12b73" y="213.61283"/>
     <use style="fill-opacity:0;stroke:#2ca02c;stroke-linejoin:miter;" x="120.067994" xlink:href="#m2e40f12b73" y="217.362382"/>
     <use style="fill-opacity:0;stroke:#2ca02c;stroke-linejoin:miter;" x="125.564413" xlink:href="#m2e40f12b73" y="220.174545"/>
     <use style="fill-opacity:0;stroke:#2ca02c;stroke-linejoin:miter;" x="131.060832" xlink:href="#m2e40f12b73" y="224.861485"/>
     <use style="fill-opacity:0;stroke:#2ca02c;stroke-linejoin:miter;" x="136.55725" xlink:href="#m2e40f12b73" y="229.548425"/>
     <use style="fill-opacity:0;stroke:#2ca02c;stroke-linejoin:miter;" x="142.053669" xlink:href="#m2e40f12b73" y="234.235365"/>
     <use style="fill-opacity:0;stroke:#2ca02c;stroke-linejoin:miter;" x="147.550088" xlink:href="#m2e40f12b73" y="238.922305"/>
     <use style="fill-opacity:0;stroke:#2ca02c;stroke-linejoin:miter;" x="153.046507" xlink:href="#m2e40f12b73" y="240.797081"/>
     <use style="fill-opacity:0;stroke:#2ca02c;stroke-linejoin:miter;" x="158.542925" xlink:href="#m2e40f12b73" y="246.421408"/>
     <use style="fill-opacity:0;stroke:#2ca02c;stroke-linejoin:miter;" x="164.039344" xlink:href="#m2e40f12b73" y="250.17096"/>
     <use style="fill-opacity:0;stroke:#2ca02c;stroke-linejoin:miter;" x="169.535763" xlink:href="#m2e40f12b73" y="255.795288"/>
     <use style="fill-opacity:0;stroke:#2ca02c;stroke-linejoin:miter;" x="175.032181" xlink:href="#m2e40f12b73" y="260.482228"/>
     <use style="fill-opacity:0;stroke:#2ca02c;stroke-linejoin:miter;" x="180.5286" xlink:href="#m2e40f12b73" y="262.357004"/>
     <use style="fill-opacity:0;stroke:#2ca02c;stroke-linejoin:miter;" x="186.025019" xlink:href="#m2e40f12b73" y="267.043944"/>
     <use style="fill-opacity:0;stroke:#2ca02c;stroke-linejoin:miter;" x="191.521438" xlink:href="#m2e40f12b73" y="270.793496"/>
     <use style="fill-opacity:0;stroke:#2ca02c;stroke-linejoin:miter;" x="197.017856" xlink:href="#m2e40f12b73" y="275.480435"/>
     <use style="fill-opacity:0;stroke:#2ca02c;stroke-linejoin:miter;" x="202.514275" xlink:href="#m2e40f12b73" y="280.167375"/>
     <use style="fill-opacity:0;stroke:#2ca02c;stroke-linejoin:miter;" x="208.010694" xlink:href="#m2e40f12b73" y="283.916927"/>
     <use style="fill-opacity:0;stroke:#2ca02c;stroke-linejoin:miter;" x="213.507113" xlink:href="#m2e40f12b73" y="286.729091"/>
     <use style="fill-opacity:0;stroke:#2ca02c;stroke-linejoin:miter;" x="219.003531" xlink:href="#m2e40f12b73" y="83.315903"/>
     <use style="fill-opacity:0;stroke:#2ca02c;stroke-linejoin:miter;" x="224.49995" xlink:href="#m2e40f12b73" y="162.99388"/>
     <use style="fill-opacity:0;stroke:#2ca02c;stroke-linejoin:miter;" x="229.996369" xlink:href="#m2e40f12b73" y="179.866863"/>
     <use style="fill-opacity:0;stroke:#2ca02c;stroke-linejoin:miter;" x="235.492788" xlink:href="#m2e40f12b73" y="188.303355"/>
     <use style="fill-opacity:0;stroke:#2ca02c;stroke-linejoin:miter;" x="240.989206" xlink:href="#m2e40f12b73" y="192.990294"/>
     <use style="fill-opacity:0;stroke:#2ca02c;stroke-linejoin:miter;" x="246.485625" xlink:href="#m2e40f12b73" y="199.55201"/>
     <use style="fill-opacity:0;stroke:#2ca02c;stroke-linejoin:miter;" x="251.982044" xlink:href="#m2e40f12b73" y="205.176338"/>
     <use style="fill-opacity:0;stroke:#2ca02c;stroke-linejoin:miter;" x="257.478462" xlink:href="#m2e40f12b73" y="209.863278"/>
     <use style="fill-opacity:0;stroke:#2ca02c;stroke-linejoin:miter;" x="262.974881" xlink:href="#m2e40f12b73" y="215.487606"/>
     <use style="fill-opacity:0;stroke:#2ca02c;stroke-linejoin:miter;" x="268.4713" xlink:href="#m2e40f12b73" y="221.111933"/>
     <use style="fill-opacity:0;stroke:#2ca02c;stroke-linejoin:miter;" x="273.967719" xlink:href="#m2e40f12b73" y="229.548425"/>
     <use style="fill-opacity:0;stroke:#2ca02c;stroke-linejoin:miter;" x="279.464137" xlink:href="#m2e40f12b73" y="233.297977"/>
     <use style="fill-opacity:0;stroke:#2ca02c;stroke-linejoin:miter;" x="284.960556" xlink:href="#m2e40f12b73" y="237.984917"/>
     <use style="fill-opacity:0;stroke:#2ca02c;stroke-linejoin:miter;" x="290.456975" xlink:href="#m2e40f12b73" y="245.48402"/>
     <use style="fill-opacity:0;stroke:#2ca02c;stroke-linejoin:miter;" x="295.953394" xlink:href="#m2e40f12b73" y="47.69516"/>
     <use style="fill-opacity:0;stroke:#2ca02c;stroke-linejoin:miter;" x="301.449812" xlink:href="#m2e40f12b73" y="135.809629"/>
     <use style="fill-opacity:0;stroke:#2ca02c;stroke-linejoin:miter;" x="306.946231" xlink:href="#m2e40f12b73" y="156.432164"/>
     <use style="fill-opacity:0;stroke:#2ca02c;stroke-linejoin:miter;" x="312.44265" xlink:href="#m2e40f12b73" y="20.510909"/>
     <use style="fill-opacity:0;stroke:#2ca02c;stroke-linejoin:miter;" x="317.939069" xlink:href="#m2e40f12b73" y="117.061869"/>
     <use style="fill-opacity:0;stroke:#2ca02c;stroke-linejoin:miter;" x="323.435487" xlink:href="#m2e40f12b73" y="129.247913"/>
     <use style="fill-opacity:0;stroke:#2ca02c;stroke-linejoin:miter;" x="328.931906" xlink:href="#m2e40f12b73" y="137.684405"/>
     <use style="fill-opacity:0;stroke:#2ca02c;stroke-linejoin:miter;" x="334.428325" xlink:href="#m2e40f12b73" y="146.120896"/>
     <use style="fill-opacity:0;stroke:#2ca02c;stroke-linejoin:miter;" x="339.924743" xlink:href="#m2e40f12b73" y="155.494776"/>
     <use style="fill-opacity:0;stroke:#2ca02c;stroke-linejoin:miter;" x="345.421162" xlink:href="#m2e40f12b73" y="162.056492"/>
     <use style="fill-opacity:0;stroke:#2ca02c;stroke-linejoin:miter;" x="350.917581" xlink:href="#m2e40f12b73" y="170.492983"/>
     <use style="fill-opacity:0;stroke:#2ca02c;stroke-linejoin:miter;" x="356.414" xlink:href="#m2e40f12b73" y="177.992087"/>
    </g>
   </g>
   <g id="line2d_19">
    <path clip-path="url(#p28676a02ba)" d="M 65.103807 120.811421 
L 70.600226 178.929475 
L 76.096644 183.616415 
L 81.593063 190.178131 
L 87.089482 192.990294 
L 92.5859 196.739846 
L 98.082319 199.55201 
L 103.578738 203.301562 
L 109.075157 209.863278 
L 114.571575 213.61283 
L 120.067994 217.362382 
L 125.564413 220.174545 
L 131.060832 224.861485 
L 136.55725 229.548425 
L 142.053669 234.235365 
L 147.550088 238.922305 
L 153.046507 240.797081 
L 158.542925 246.421408 
L 164.039344 250.17096 
L 169.535763 255.795288 
L 175.032181 260.482228 
L 180.5286 262.357004 
L 186.025019 267.043944 
L 191.521438 270.793496 
L 197.017856 275.480435 
L 202.514275 280.167375 
L 208.010694 283.916927 
L 213.507113 286.729091 
L 219.003531 83.315903 
L 224.49995 162.99388 
L 229.996369 179.866863 
L 235.492788 188.303355 
L 240.989206 192.990294 
L 246.485625 199.55201 
L 251.982044 205.176338 
L 257.478462 209.863278 
L 262.974881 215.487606 
L 268.4713 221.111933 
L 273.967719 229.548425 
L 279.464137 233.297977 
L 284.960556 237.984917 
L 290.456975 245.48402 
L 295.953394 57.06904 
L 301.449812 145.183508 
L 306.946231 164.868656 
L 312.44265 30.822177 
L 317.939069 128.310525 
L 323.435487 141.433956 
L 328.931906 149.870448 
L 334.428325 159.244328 
L 339.924743 165.806044 
L 345.421162 173.305147 
L 350.917581 182.679027 
L 356.414 187.365967 
" style="fill:none;stroke:#00ffff;stroke-dasharray:5.55,2.4;stroke-dashoffset:0;stroke-width:1.5;"/>
    <defs>
     <path d="M -3 0 
L 3 0 
M 0 3 
L 0 -3 
" id="m4bda7b3c2f" style="stroke:#00ffff;"/>
    </defs>
    <g clip-path="url(#p28676a02ba)">
     <use style="fill:#00ffff;stroke:#00ffff;" x="65.103807" xlink:href="#m4bda7b3c2f" y="120.811421"/>
     <use style="fill:#00ffff;stroke:#00ffff;" x="70.600226" xlink:href="#m4bda7b3c2f" y="178.929475"/>
     <use style="fill:#00ffff;stroke:#00ffff;" x="76.096644" xlink:href="#m4bda7b3c2f" y="183.616415"/>
     <use style="fill:#00ffff;stroke:#00ffff;" x="81.593063" xlink:href="#m4bda7b3c2f" y="190.178131"/>
     <use style="fill:#00ffff;stroke:#00ffff;" x="87.089482" xlink:href="#m4bda7b3c2f" y="192.990294"/>
     <use style="fill:#00ffff;stroke:#00ffff;" x="92.5859" xlink:href="#m4bda7b3c2f" y="196.739846"/>
     <use style="fill:#00ffff;stroke:#00ffff;" x="98.082319" xlink:href="#m4bda7b3c2f" y="199.55201"/>
     <use style="fill:#00ffff;stroke:#00ffff;" x="103.578738" xlink:href="#m4bda7b3c2f" y="203.301562"/>
     <use style="fill:#00ffff;stroke:#00ffff;" x="109.075157" xlink:href="#m4bda7b3c2f" y="209.863278"/>
     <use style="fill:#00ffff;stroke:#00ffff;" x="114.571575" xlink:href="#m4bda7b3c2f" y="213.61283"/>
     <use style="fill:#00ffff;stroke:#00ffff;" x="120.067994" xlink:href="#m4bda7b3c2f" y="217.362382"/>
     <use style="fill:#00ffff;stroke:#00ffff;" x="125.564413" xlink:href="#m4bda7b3c2f" y="220.174545"/>
     <use style="fill:#00ffff;stroke:#00ffff;" x="131.060832" xlink:href="#m4bda7b3c2f" y="224.861485"/>
     <use style="fill:#00ffff;stroke:#00ffff;" x="136.55725" xlink:href="#m4bda7b3c2f" y="229.548425"/>
     <use style="fill:#00ffff;stroke:#00ffff;" x="142.053669" xlink:href="#m4bda7b3c2f" y="234.235365"/>
     <use style="fill:#00ffff;stroke:#00ffff;" x="147.550088" xlink:href="#m4bda7b3c2f" y="238.922305"/>
     <use style="fill:#00ffff;stroke:#00ffff;" x="153.046507" xlink:href="#m4bda7b3c2f" y="240.797081"/>
     <use style="fill:#00ffff;stroke:#00ffff;" x="158.542925" xlink:href="#m4bda7b3c2f" y="246.421408"/>
     <use style="fill:#00ffff;stroke:#00ffff;" x="164.039344" xlink:href="#m4bda7b3c2f" y="250.17096"/>
     <use style="fill:#00ffff;stroke:#00ffff;" x="169.535763" xlink:href="#m4bda7b3c2f" y="255.795288"/>
     <use style="fill:#00ffff;stroke:#00ffff;" x="175.032181" xlink:href="#m4bda7b3c2f" y="260.482228"/>
     <use style="fill:#00ffff;stroke:#00ffff;" x="180.5286" xlink:href="#m4bda7b3c2f" y="262.357004"/>
     <use style="fill:#00ffff;stroke:#00ffff;" x="186.025019" xlink:href="#m4bda7b3c2f" y="267.043944"/>
     <use style="fill:#00ffff;stroke:#00ffff;" x="191.521438" xlink:href="#m4bda7b3c2f" y="270.793496"/>
     <use style="fill:#00ffff;stroke:#00ffff;" x="197.017856" xlink:href="#m4bda7b3c2f" y="275.480435"/>
     <use style="fill:#00ffff;stroke:#00ffff;" x="202.514275" xlink:href="#m4bda7b3c2f" y="280.167375"/>
     <use style="fill:#00ffff;stroke:#00ffff;" x="208.010694" xlink:href="#m4bda7b3c2f" y="283.916927"/>
     <use style="fill:#00ffff;stroke:#00ffff;" x="213.507113" xlink:href="#m4bda7b3c2f" y="286.729091"/>
     <use style="fill:#00ffff;stroke:#00ffff;" x="219.003531" xlink:href="#m4bda7b3c2f" y="83.315903"/>
     <use style="fill:#00ffff;stroke:#00ffff;" x="224.49995" xlink:href="#m4bda7b3c2f" y="162.99388"/>
     <use style="fill:#00ffff;stroke:#00ffff;" x="229.996369" xlink:href="#m4bda7b3c2f" y="179.866863"/>
     <use style="fill:#00ffff;stroke:#00ffff;" x="235.492788" xlink:href="#m4bda7b3c2f" y="188.303355"/>
     <use style="fill:#00ffff;stroke:#00ffff;" x="240.989206" xlink:href="#m4bda7b3c2f" y="192.990294"/>
     <use style="fill:#00ffff;stroke:#00ffff;" x="246.485625" xlink:href="#m4bda7b3c2f" y="199.55201"/>
     <use style="fill:#00ffff;stroke:#00ffff;" x="251.982044" xlink:href="#m4bda7b3c2f" y="205.176338"/>
     <use style="fill:#00ffff;stroke:#00ffff;" x="257.478462" xlink:href="#m4bda7b3c2f" y="209.863278"/>
     <use style="fill:#00ffff;stroke:#00ffff;" x="262.974881" xlink:href="#m4bda7b3c2f" y="215.487606"/>
     <use style="fill:#00ffff;stroke:#00ffff;" x="268.4713" xlink:href="#m4bda7b3c2f" y="221.111933"/>
     <use style="fill:#00ffff;stroke:#00ffff;" x="273.967719" xlink:href="#m4bda7b3c2f" y="229.548425"/>
     <use style="fill:#00ffff;stroke:#00ffff;" x="279.464137" xlink:href="#m4bda7b3c2f" y="233.297977"/>
     <use style="fill:#00ffff;stroke:#00ffff;" x="284.960556" xlink:href="#m4bda7b3c2f" y="237.984917"/>
     <use style="fill:#00ffff;stroke:#00ffff;" x="290.456975" xlink:href="#m4bda7b3c2f" y="245.48402"/>
     <use style="fill:#00ffff;stroke:#00ffff;" x="295.953394" xlink:href="#m4bda7b3c2f" y="57.06904"/>
     <use style="fill:#00ffff;stroke:#00ffff;" x="301.449812" xlink:href="#m4bda7b3c2f" y="145.183508"/>
     <use style="fill:#00ffff;stroke:#00ffff;" x="306.946231" xlink:href="#m4bda7b3c2f" y="164.868656"/>
     <use style="fill:#00ffff;stroke:#00ffff;" x="312.44265" xlink:href="#m4bda7b3c2f" y="30.822177"/>
     <use style="fill:#00ffff;stroke:#00ffff;" x="317.939069" xlink:href="#m4bda7b3c2f" y="128.310525"/>
     <use style="fill:#00ffff;stroke:#00ffff;" x="323.435487" xlink:href="#m4bda7b3c2f" y="141.433956"/>
     <use style="fill:#00ffff;stroke:#00ffff;" x="328.931906" xlink:href="#m4bda7b3c2f" y="149.870448"/>
     <use style="fill:#00ffff;stroke:#00ffff;" x="334.428325" xlink:href="#m4bda7b3c2f" y="159.244328"/>
     <use style="fill:#00ffff;stroke:#00ffff;" x="339.924743" xlink:href="#m4bda7b3c2f" y="165.806044"/>
     <use style="fill:#00ffff;stroke:#00ffff;" x="345.421162" xlink:href="#m4bda7b3c2f" y="173.305147"/>
     <use style="fill:#00ffff;stroke:#00ffff;" x="350.917581" xlink:href="#m4bda7b3c2f" y="182.679027"/>
     <use style="fill:#00ffff;stroke:#00ffff;" x="356.414" xlink:href="#m4bda7b3c2f" y="187.365967"/>
    </g>
   </g>
   <g id="patch_3">
    <path d="M 46.965625 300.04 
L 46.965625 7.2 
" style="fill:none;stroke:#000000;stroke-linecap:square;stroke-linejoin:miter;stroke-width:0.8;"/>
   </g>
   <g id="patch_4">
    <path d="M 446.005625 300.04 
L 446.005625 7.2 
" style="fill:none;stroke:#000000;stroke-linecap:square;stroke-linejoin:miter;stroke-width:0.8;"/>
   </g>
   <g id="patch_5">
    <path d="M 46.965625 300.04 
L 446.005625 300.04 
" style="fill:none;stroke:#000000;stroke-linecap:square;stroke-linejoin:miter;stroke-width:0.8;"/>
   </g>
   <g id="patch_6">
    <path d="M 46.965625 7.2 
L 446.005625 7.2 
" style="fill:none;stroke:#000000;stroke-linecap:square;stroke-linejoin:miter;stroke-width:0.8;"/>
   </g>
   <g id="legend_1">
    <g id="patch_7">
     <path d="M 53.965625 103.26875 
L 166.539062 103.26875 
Q 168.539062 103.26875 168.539062 101.26875 
L 168.539062 14.2 
Q 168.539062 12.2 166.539062 12.2 
L 53.965625 12.2 
Q 51.965625 12.2 51.965625 14.2 
L 51.965625 101.26875 
Q 51.965625 103.26875 53.965625 103.26875 
z
" style="fill:#ffffff;opacity:0.8;stroke:#cccccc;stroke-linejoin:miter;"/>
    </g>
    <g id="line2d_20">
     <path d="M 55.965625 20.298438 
L 75.965625 20.298438 
" style="fill:none;stroke:#0000ff;stroke-linecap:square;stroke-width:1.5;"/>
    </g>
    <g id="line2d_21">
     <g>
      <use style="fill-opacity:0;stroke:#0000ff;stroke-linejoin:miter;" x="65.965625" xlink:href="#m74656a318f" y="20.298438"/>
     </g>
    </g>
    <g id="text_16">
     <!-- 3 group set -->
     <defs>
      <path d="M 45.40625 27.984375 
Q 45.40625 37.75 41.375 43.109375 
Q 37.359375 48.484375 30.078125 48.484375 
Q 22.859375 48.484375 18.828125 43.109375 
Q 14.796875 37.75 14.796875 27.984375 
Q 14.796875 18.265625 18.828125 12.890625 
Q 22.859375 7.515625 30.078125 7.515625 
Q 37.359375 7.515625 41.375 12.890625 
Q 45.40625 18.265625 45.40625 27.984375 
z
M 54.390625 6.78125 
Q 54.390625 -7.171875 48.1875 -13.984375 
Q 42 -20.796875 29.203125 -20.796875 
Q 24.46875 -20.796875 20.265625 -20.09375 
Q 16.0625 -19.390625 12.109375 -17.921875 
L 12.109375 -9.1875 
Q 16.0625 -11.328125 19.921875 -12.34375 
Q 23.78125 -13.375 27.78125 -13.375 
Q 36.625 -13.375 41.015625 -8.765625 
Q 45.40625 -4.15625 45.40625 5.171875 
L 45.40625 9.625 
Q 42.625 4.78125 38.28125 2.390625 
Q 33.9375 0 27.875 0 
Q 17.828125 0 11.671875 7.65625 
Q 5.515625 15.328125 5.515625 27.984375 
Q 5.515625 40.671875 11.671875 48.328125 
Q 17.828125 56 27.875 56 
Q 33.9375 56 38.28125 53.609375 
Q 42.625 51.21875 45.40625 46.390625 
L 45.40625 54.6875 
L 54.390625 54.6875 
z
" id="DejaVuSans-103"/>
      <path d="M 8.5 21.578125 
L 8.5 54.6875 
L 17.484375 54.6875 
L 17.484375 21.921875 
Q 17.484375 14.15625 20.5 10.265625 
Q 23.53125 6.390625 29.59375 6.390625 
Q 36.859375 6.390625 41.078125 11.03125 
Q 45.3125 15.671875 45.3125 23.6875 
L 45.3125 54.6875 
L 54.296875 54.6875 
L 54.296875 0 
L 45.3125 0 
L 45.3125 8.40625 
Q 42.046875 3.421875 37.71875 1 
Q 33.40625 -1.421875 27.6875 -1.421875 
Q 18.265625 -1.421875 13.375 4.4375 
Q 8.5 10.296875 8.5 21.578125 
z
M 31.109375 56 
z
" id="DejaVuSans-117"/>
      <path d="M 18.109375 8.203125 
L 18.109375 -20.796875 
L 9.078125 -20.796875 
L 9.078125 54.6875 
L 18.109375 54.6875 
L 18.109375 46.390625 
Q 20.953125 51.265625 25.265625 53.625 
Q 29.59375 56 35.59375 56 
Q 45.5625 56 51.78125 48.09375 
Q 58.015625 40.1875 58.015625 27.296875 
Q 58.015625 14.40625 51.78125 6.484375 
Q 45.5625 -1.421875 35.59375 -1.421875 
Q 29.59375 -1.421875 25.265625 0.953125 
Q 20.953125 3.328125 18.109375 8.203125 
z
M 48.6875 27.296875 
Q 48.6875 37.203125 44.609375 42.84375 
Q 40.53125 48.484375 33.40625 48.484375 
Q 26.265625 48.484375 22.1875 42.84375 
Q 18.109375 37.203125 18.109375 27.296875 
Q 18.109375 17.390625 22.1875 11.75 
Q 26.265625 6.109375 33.40625 6.109375 
Q 40.53125 6.109375 44.609375 11.75 
Q 48.6875 17.390625 48.6875 27.296875 
z
" id="DejaVuSans-112"/>
     </defs>
     <g transform="translate(83.965625 23.798438)scale(0.1 -0.1)">
      <use xlink:href="#DejaVuSans-51"/>
      <use x="63.623047" xlink:href="#DejaVuSans-32"/>
      <use x="95.410156" xlink:href="#DejaVuSans-103"/>
      <use x="158.886719" xlink:href="#DejaVuSans-114"/>
      <use x="199.96875" xlink:href="#DejaVuSans-111"/>
      <use x="261.150391" xlink:href="#DejaVuSans-117"/>
      <use x="324.529297" xlink:href="#DejaVuSans-112"/>
      <use x="388.005859" xlink:href="#DejaVuSans-32"/>
      <use x="419.792969" xlink:href="#DejaVuSans-115"/>
      <use x="471.892578" xlink:href="#DejaVuSans-101"/>
      <use x="533.416016" xlink:href="#DejaVuSans-116"/>
     </g>
    </g>
    <g id="line2d_22">
     <path d="M 55.965625 34.976563 
L 75.965625 34.976563 
" style="fill:none;stroke:#ff0000;stroke-dasharray:5.55,2.4;stroke-dashoffset:0;stroke-width:1.5;"/>
    </g>
    <g id="line2d_23">
     <g>
      <use style="fill:#ff0000;stroke:#ff0000;" x="65.965625" xlink:href="#mab616e7707" y="34.976563"/>
     </g>
    </g>
    <g id="text_17">
     <!-- 3 group set DLB -->
     <defs>
      <path d="M 19.671875 64.796875 
L 19.671875 8.109375 
L 31.59375 8.109375 
Q 46.6875 8.109375 53.6875 14.9375 
Q 60.6875 21.78125 60.6875 36.53125 
Q 60.6875 51.171875 53.6875 57.984375 
Q 46.6875 64.796875 31.59375 64.796875 
z
M 9.8125 72.90625 
L 30.078125 72.90625 
Q 51.265625 72.90625 61.171875 64.09375 
Q 71.09375 55.28125 71.09375 36.53125 
Q 71.09375 17.671875 61.125 8.828125 
Q 51.171875 0 30.078125 0 
L 9.8125 0 
z
" id="DejaVuSans-68"/>
      <path d="M 9.8125 72.90625 
L 19.671875 72.90625 
L 19.671875 8.296875 
L 55.171875 8.296875 
L 55.171875 0 
L 9.8125 0 
z
" id="DejaVuSans-76"/>
      <path d="M 19.671875 34.8125 
L 19.671875 8.109375 
L 35.5 8.109375 
Q 43.453125 8.109375 47.28125 11.40625 
Q 51.125 14.703125 51.125 21.484375 
Q 51.125 28.328125 47.28125 31.5625 
Q 43.453125 34.8125 35.5 34.8125 
z
M 19.671875 64.796875 
L 19.671875 42.828125 
L 34.28125 42.828125 
Q 41.5 42.828125 45.03125 45.53125 
Q 48.578125 48.25 48.578125 53.8125 
Q 48.578125 59.328125 45.03125 62.0625 
Q 41.5 64.796875 34.28125 64.796875 
z
M 9.8125 72.90625 
L 35.015625 72.90625 
Q 46.296875 72.90625 52.390625 68.21875 
Q 58.5 63.53125 58.5 54.890625 
Q 58.5 48.1875 55.375 44.234375 
Q 52.25 40.28125 46.1875 39.3125 
Q 53.46875 37.75 57.5 32.78125 
Q 61.53125 27.828125 61.53125 20.40625 
Q 61.53125 10.640625 54.890625 5.3125 
Q 48.25 0 35.984375 0 
L 9.8125 0 
z
" id="DejaVuSans-66"/>
     </defs>
     <g transform="translate(83.965625 38.476563)scale(0.1 -0.1)">
      <use xlink:href="#DejaVuSans-51"/>
      <use x="63.623047" xlink:href="#DejaVuSans-32"/>
      <use x="95.410156" xlink:href="#DejaVuSans-103"/>
      <use x="158.886719" xlink:href="#DejaVuSans-114"/>
      <use x="199.96875" xlink:href="#DejaVuSans-111"/>
      <use x="261.150391" xlink:href="#DejaVuSans-117"/>
      <use x="324.529297" xlink:href="#DejaVuSans-112"/>
      <use x="388.005859" xlink:href="#DejaVuSans-32"/>
      <use x="419.792969" xlink:href="#DejaVuSans-115"/>
      <use x="471.892578" xlink:href="#DejaVuSans-101"/>
      <use x="533.416016" xlink:href="#DejaVuSans-116"/>
      <use x="572.625" xlink:href="#DejaVuSans-32"/>
      <use x="604.412109" xlink:href="#DejaVuSans-68"/>
      <use x="681.414062" xlink:href="#DejaVuSans-76"/>
      <use x="737.126953" xlink:href="#DejaVuSans-66"/>
     </g>
    </g>
    <g id="line2d_24">
     <path d="M 55.965625 49.654688 
L 75.965625 49.654688 
" style="fill:none;stroke:#1f77b4;stroke-linecap:square;stroke-width:1.5;"/>
    </g>
    <g id="line2d_25">
     <g>
      <use style="fill-opacity:0;stroke:#1f77b4;" x="65.965625" xlink:href="#ma98d9db8e3" y="49.654688"/>
     </g>
    </g>
    <g id="text_18">
     <!-- 2 group set -->
     <g transform="translate(83.965625 53.154688)scale(0.1 -0.1)">
      <use xlink:href="#DejaVuSans-50"/>
      <use x="63.623047" xlink:href="#DejaVuSans-32"/>
      <use x="95.410156" xlink:href="#DejaVuSans-103"/>
      <use x="158.886719" xlink:href="#DejaVuSans-114"/>
      <use x="199.96875" xlink:href="#DejaVuSans-111"/>
      <use x="261.150391" xlink:href="#DejaVuSans-117"/>
      <use x="324.529297" xlink:href="#DejaVuSans-112"/>
      <use x="388.005859" xlink:href="#DejaVuSans-32"/>
      <use x="419.792969" xlink:href="#DejaVuSans-115"/>
      <use x="471.892578" xlink:href="#DejaVuSans-101"/>
      <use x="533.416016" xlink:href="#DejaVuSans-116"/>
     </g>
    </g>
    <g id="line2d_26">
     <path d="M 55.965625 64.332813 
L 75.965625 64.332813 
" style="fill:none;stroke:#ff7f0e;stroke-dasharray:5.55,2.4;stroke-dashoffset:0;stroke-width:1.5;"/>
    </g>
    <g id="line2d_27">
     <g>
      <use style="fill:#ff7f0e;stroke:#ff7f0e;stroke-linejoin:miter;" x="65.965625" xlink:href="#m0640264b78" y="64.332813"/>
     </g>
    </g>
    <g id="text_19">
     <!-- 2 group set DLB -->
     <g transform="translate(83.965625 67.832813)scale(0.1 -0.1)">
      <use xlink:href="#DejaVuSans-50"/>
      <use x="63.623047" xlink:href="#DejaVuSans-32"/>
      <use x="95.410156" xlink:href="#DejaVuSans-103"/>
      <use x="158.886719" xlink:href="#DejaVuSans-114"/>
      <use x="199.96875" xlink:href="#DejaVuSans-111"/>
      <use x="261.150391" xlink:href="#DejaVuSans-117"/>
      <use x="324.529297" xlink:href="#DejaVuSans-112"/>
      <use x="388.005859" xlink:href="#DejaVuSans-32"/>
      <use x="419.792969" xlink:href="#DejaVuSans-115"/>
      <use x="471.892578" xlink:href="#DejaVuSans-101"/>
      <use x="533.416016" xlink:href="#DejaVuSans-116"/>
      <use x="572.625" xlink:href="#DejaVuSans-32"/>
      <use x="604.412109" xlink:href="#DejaVuSans-68"/>
      <use x="681.414062" xlink:href="#DejaVuSans-76"/>
      <use x="737.126953" xlink:href="#DejaVuSans-66"/>
     </g>
    </g>
    <g id="line2d_28">
     <path d="M 55.965625 79.010938 
L 75.965625 79.010938 
" style="fill:none;stroke:#2ca02c;stroke-linecap:square;stroke-width:1.5;"/>
    </g>
    <g id="line2d_29">
     <g>
      <use style="fill-opacity:0;stroke:#2ca02c;stroke-linejoin:miter;" x="65.965625" xlink:href="#m2e40f12b73" y="79.010938"/>
     </g>
    </g>
    <g id="text_20">
     <!-- 1 group set -->
     <g transform="translate(83.965625 82.510938)scale(0.1 -0.1)">
      <use xlink:href="#DejaVuSans-49"/>
      <use x="63.623047" xlink:href="#DejaVuSans-32"/>
      <use x="95.410156" xlink:href="#DejaVuSans-103"/>
      <use x="158.886719" xlink:href="#DejaVuSans-114"/>
      <use x="199.96875" xlink:href="#DejaVuSans-111"/>
      <use x="261.150391" xlink:href="#DejaVuSans-117"/>
      <use x="324.529297" xlink:href="#DejaVuSans-112"/>
      <use x="388.005859" xlink:href="#DejaVuSans-32"/>
      <use x="419.792969" xlink:href="#DejaVuSans-115"/>
      <use x="471.892578" xlink:href="#DejaVuSans-101"/>
      <use x="533.416016" xlink:href="#DejaVuSans-116"/>
     </g>
    </g>
    <g id="line2d_30">
     <path d="M 55.965625 93.689063 
L 75.965625 93.689063 
" style="fill:none;stroke:#00ffff;stroke-dasharray:5.55,2.4;stroke-dashoffset:0;stroke-width:1.5;"/>
    </g>
    <g id="line2d_31">
     <g>
      <use style="fill:#00ffff;stroke:#00ffff;" x="65.965625" xlink:href="#m4bda7b3c2f" y="93.689063"/>
     </g>
    </g>
    <g id="text_21">
     <!-- 1 group set DLB -->
     <g transform="translate(83.965625 97.189063)scale(0.1 -0.1)">
      <use xlink:href="#DejaVuSans-49"/>
      <use x="63.623047" xlink:href="#DejaVuSans-32"/>
      <use x="95.410156" xlink:href="#DejaVuSans-103"/>
      <use x="158.886719" xlink:href="#DejaVuSans-114"/>
      <use x="199.96875" xlink:href="#DejaVuSans-111"/>
      <use x="261.150391" xlink:href="#DejaVuSans-117"/>
      <use x="324.529297" xlink:href="#DejaVuSans-112"/>
      <use x="388.005859" xlink:href="#DejaVuSans-32"/>
      <use x="419.792969" xlink:href="#DejaVuSans-115"/>
      <use x="471.892578" xlink:href="#DejaVuSans-101"/>
      <use x="533.416016" xlink:href="#DejaVuSans-116"/>
      <use x="572.625" xlink:href="#DejaVuSans-32"/>
      <use x="604.412109" xlink:href="#DejaVuSans-68"/>
      <use x="681.414062" xlink:href="#DejaVuSans-76"/>
      <use x="737.126953" xlink:href="#DejaVuSans-66"/>
     </g>
    </g>
   </g>
  </g>
 </g>
 <defs>
  <clipPath id="p28676a02ba">
   <rect height="292.84" width="399.04" x="46.965625" y="7.2"/>
  </clipPath>
 </defs>
</svg>
